<svg width="84" height="18" viewBox="0 0 84 18" fill="none" xmlns="http://www.w3.org/2000/svg">
<path d="M52.6785 2.12102V4.64114H51.0988V6.29382H52.6785V11.9093C52.6785 13.8268 53.5459 14.5938 55.7282 14.5938C56.1117 14.5938 56.4769 14.5481 56.7965 14.4933V12.8589C56.5225 12.8863 56.3491 12.9046 56.0477 12.9046C55.0707 12.9046 54.6416 12.448 54.6416 11.4071V6.29382H56.7965V4.64114H54.6416V2.12102H52.6785Z" fill="white"/>
<path d="M62.3557 14.7307C65.2593 14.7307 67.0398 12.7859 67.0398 9.56267C67.0398 6.35774 65.2502 4.40373 62.3557 4.40373C59.4521 4.40373 57.6624 6.35774 57.6624 9.56267C57.6624 12.7859 59.443 14.7307 62.3557 14.7307ZM62.3557 12.9867C60.6482 12.9867 59.6895 11.7358 59.6895 9.56267C59.6895 7.40779 60.6482 6.14773 62.3557 6.14773C64.054 6.14773 65.0219 7.40779 65.0219 9.56267C65.0219 11.7267 64.054 12.9867 62.3557 12.9867Z" fill="white"/>
<path d="M68.5632 14.539H70.5264V8.66784C70.5264 7.27082 71.5764 6.33035 73.0647 6.33035C73.4117 6.33035 73.9961 6.39426 74.1604 6.44905V4.5133C73.9504 4.45852 73.5761 4.43113 73.2839 4.43113C71.9873 4.43113 70.8825 5.14333 70.5994 6.12034H70.4533V4.59548H68.5632V14.539Z" fill="white"/>
<path d="M79.0349 6.07468C80.4867 6.07468 81.4363 7.08821 81.4819 8.64958H76.46C76.5695 7.09734 77.5831 6.07468 79.0349 6.07468ZM81.4728 11.8545C81.1076 12.6306 80.2949 13.0598 79.1079 13.0598C77.5374 13.0598 76.5239 11.955 76.46 10.211V10.1014H83.4816V9.41658C83.4816 6.29382 81.8106 4.40373 79.044 4.40373C76.2408 4.40373 74.4603 6.42165 74.4603 9.59919C74.4603 12.7767 76.2043 14.7307 79.0531 14.7307C81.3267 14.7307 82.9155 13.635 83.3629 11.8545H81.4728Z" fill="white"/>
<path d="M39.8045 10.867C39.9559 13.3087 41.9907 14.8702 45.0191 14.8702C48.2557 14.8702 50.281 13.233 50.281 10.6209C50.281 8.56729 49.1264 7.43162 46.3251 6.77862L44.8204 6.40952C43.0411 5.99311 42.3219 5.43475 42.3219 4.45997C42.3219 3.22967 43.4386 2.42524 45.1137 2.42524C46.7037 2.42524 47.8015 3.21074 48.0002 4.46943H50.0633C49.9403 2.16971 47.915 0.551392 45.1421 0.551392C42.161 0.551392 40.1736 2.16971 40.1736 4.60193C40.1736 6.60827 41.2998 7.80071 43.7699 8.37801L45.5301 8.80388C47.3377 9.22976 48.1327 9.85437 48.1327 10.8954C48.1327 12.1068 46.8835 12.9869 45.18 12.9869C43.3535 12.9869 42.0853 12.1636 41.9055 10.867H39.8045Z" fill="white"/>
<path d="M19.4684 4.43113C18.1171 4.43113 16.9483 5.10681 16.3457 6.23904H16.1996V4.59548H14.3095V17.8444H16.2726V13.0324H16.4279C16.9483 14.0824 18.0714 14.7033 19.4867 14.7033C21.9977 14.7033 23.5956 12.7219 23.5956 9.56267C23.5956 6.40339 21.9977 4.43113 19.4684 4.43113ZM18.9115 12.9411C17.2679 12.9411 16.2361 11.6445 16.2361 9.5718C16.2361 7.48996 17.2679 6.19338 18.9206 6.19338C20.5824 6.19338 21.5777 7.46257 21.5777 9.56267C21.5777 11.6719 20.5824 12.9411 18.9115 12.9411Z" fill="white"/>
<path d="M30.4649 4.43113C29.1135 4.43113 27.9448 5.10681 27.3422 6.23904H27.1961V4.59548H25.306V17.8444H27.2691V13.0324H27.4243C27.9448 14.0824 29.0679 14.7033 30.4832 14.7033C32.9942 14.7033 34.5921 12.7219 34.5921 9.56267C34.5921 6.40339 32.9942 4.43113 30.4649 4.43113ZM29.9079 12.9411C28.2644 12.9411 27.2326 11.6445 27.2326 9.5718C27.2326 7.48996 28.2644 6.19338 29.9171 6.19338C31.5789 6.19338 32.5741 7.46257 32.5741 9.56267C32.5741 11.6719 31.5789 12.9411 29.9079 12.9411Z" fill="white"/>
<path d="M10.7873 14.539H13.0397L8.10903 0.882627H5.82824L0.89756 14.539H3.07425L4.33294 10.9143H9.53807L10.7873 14.539ZM6.8598 3.36216H7.02068L8.99863 9.13512H4.87238L6.8598 3.36216Z" fill="white"/>
</svg>
