<svg width="14" height="14" viewBox="0 0 14 14" fill="none" xmlns="http://www.w3.org/2000/svg">
<path fill-rule="evenodd" clip-rule="evenodd" d="M7.63849 8.17064C7.63557 8.3433 7.52999 8.50489 7.35966 8.5708L4.44299 9.70539C4.21782 9.79288 3.96407 9.68089 3.87657 9.45572C3.78907 9.23114 3.90049 8.97739 4.12566 8.88989L7.04232 7.7553C7.26749 7.6678 7.52124 7.77922 7.60874 8.00439C7.62799 8.05397 7.63732 8.10472 7.63849 8.15489V5.80522C7.63557 5.9773 7.52999 6.13889 7.35966 6.20539L4.44299 7.33939C4.21782 7.42689 3.96407 7.31547 3.87657 7.0903C3.78907 6.86514 3.90049 6.61139 4.12566 6.52389L7.04232 5.38989C7.26749 5.30239 7.52124 5.4138 7.60874 5.63897C7.62799 5.68797 7.63732 5.7393 7.63849 5.78947V3.43922C7.63557 3.6113 7.52999 3.77289 7.35966 3.83939L4.44299 4.97339C4.21782 5.06089 3.96407 4.94947 3.87657 4.7243C3.78907 4.49914 3.90049 4.24539 4.12566 4.15789L7.04232 3.02389C7.26749 2.93639 7.52124 3.0478 7.60874 3.27297C7.62799 3.32255 7.63732 3.3733 7.63849 3.42347V1.0983C7.63849 0.953635 7.56732 0.818885 7.44774 0.737219C7.32874 0.655552 7.17707 0.638052 7.04232 0.690552L1.79232 2.73222C1.62432 2.79755 1.51349 2.95972 1.51349 3.13997V12.765C1.51349 13.0065 1.70949 13.2025 1.95099 13.2025H7.20099C7.44249 13.2025 7.63849 13.0065 7.63849 12.765V8.17064Z" fill="#179BD6"/>
<path fill-rule="evenodd" clip-rule="evenodd" d="M12.8885 12.3275H1.22183C0.980332 12.3275 0.784332 12.5235 0.784332 12.765C0.784332 13.0065 0.980332 13.2025 1.22183 13.2025H12.8885C13.13 13.2025 13.326 13.0065 13.326 12.765C13.326 12.5235 13.13 12.3275 12.8885 12.3275Z" fill="#179BD6"/>
<path fill-rule="evenodd" clip-rule="evenodd" d="M7.88232 13.2025C7.81932 13.0701 7.78432 12.9213 7.78432 12.765V6.3483C7.78432 5.7848 8.24166 5.32747 8.80516 5.32747H10.2635V3.13997C10.2635 3.00522 10.2011 2.87747 10.0943 2.79464L7.46932 0.75297C7.33749 0.650304 7.15899 0.631637 7.00849 0.705137C6.85857 0.778637 6.76349 0.93147 6.76349 1.0983V12.765C6.76349 13.0065 6.95949 13.2025 7.20099 13.2025H7.88232Z" fill="#179BD6"/>
<path fill-rule="evenodd" clip-rule="evenodd" d="M12.5968 6.34833C12.5968 6.10683 12.4008 5.91083 12.1593 5.91083H8.80518C8.56368 5.91083 8.36768 6.10683 8.36768 6.34833V12.765C8.36768 13.0065 8.56368 13.2025 8.80518 13.2025H12.1593C12.4008 13.2025 12.5968 13.0065 12.5968 12.765V6.34833ZM10.7739 9.99416H10.1906C9.94909 9.99416 9.75309 10.1902 9.75309 10.4317C9.75309 10.6732 9.94909 10.8692 10.1906 10.8692H10.7739C11.0154 10.8692 11.2114 10.6732 11.2114 10.4317C11.2114 10.1902 11.0154 9.99416 10.7739 9.99416ZM10.7739 7.95249H10.1906C9.94909 7.95249 9.75309 8.14849 9.75309 8.38999C9.75309 8.63149 9.94909 8.82749 10.1906 8.82749H10.7739C11.0154 8.82749 11.2114 8.63149 11.2114 8.38999C11.2114 8.14849 11.0154 7.95249 10.7739 7.95249Z" fill="#179BD6"/>
</svg>
