<svg width="14" height="14" viewBox="0 0 14 14" fill="none" xmlns="http://www.w3.org/2000/svg">
<path d="M7.15918 3.55664C7.15918 3.45718 7.11967 3.3618 7.04934 3.29148C6.97902 3.22115 6.88364 3.18164 6.78418 3.18164C6.68472 3.18164 6.58934 3.22115 6.51901 3.29148C6.44869 3.3618 6.40918 3.45718 6.40918 3.55664V7.68164C6.4092 7.74774 6.42669 7.81266 6.45988 7.86982C6.49307 7.92698 6.54078 7.97436 6.59818 8.00714L9.22318 9.50714C9.30932 9.5537 9.41026 9.56471 9.50442 9.53783C9.59858 9.51095 9.67848 9.44831 9.72707 9.36329C9.77565 9.27827 9.78905 9.17762 9.7644 9.08286C9.73976 8.98809 9.67902 8.90672 9.59518 8.85614L7.15918 7.46414V3.55664Z" fill="#33B3EF" stroke="#33B3EF" stroke-width="0.5"/>
<path d="M7.15918 12.9316C8.75048 12.9316 10.2766 12.2995 11.4018 11.1743C12.527 10.0491 13.1592 8.52294 13.1592 6.93164C13.1592 5.34034 12.527 3.81422 11.4018 2.689C10.2766 1.56378 8.75048 0.931641 7.15918 0.931641C5.56788 0.931641 4.04176 1.56378 2.91654 2.689C1.79132 3.81422 1.15918 5.34034 1.15918 6.93164C1.15918 8.52294 1.79132 10.0491 2.91654 11.1743C4.04176 12.2995 5.56788 12.9316 7.15918 12.9316ZM12.4092 6.93164C12.4092 8.32403 11.8561 9.65938 10.8715 10.644C9.88692 11.6285 8.55157 12.1816 7.15918 12.1816C5.76679 12.1816 4.43144 11.6285 3.44687 10.644C2.4623 9.65938 1.90918 8.32403 1.90918 6.93164C1.90918 5.53925 2.4623 4.2039 3.44687 3.21933C4.43144 2.23476 5.76679 1.68164 7.15918 1.68164C8.55157 1.68164 9.88692 2.23476 10.8715 3.21933C11.8561 4.2039 12.4092 5.53925 12.4092 6.93164Z" fill="#33B3EF" stroke="#33B3EF" stroke-width="0.5"/>
</svg>
