<svg width="77" height="8" viewBox="0 0 77 8" fill="none" xmlns="http://www.w3.org/2000/svg">
<path d="M0.216263 0.582019V7.16993H2.59485C4.55799 7.16993 5.69478 5.96009 5.69478 3.85543C5.69478 1.78273 4.54886 0.582019 2.59485 0.582019H0.216263ZM1.23892 1.51337H2.48072C3.84578 1.51337 4.65386 2.3808 4.65386 3.86913C4.65386 5.38029 3.85948 6.23859 2.48072 6.23859H1.23892V1.51337Z" fill="white"/>
<path d="M9.17638 7.26581C10.6282 7.26581 11.5184 6.29337 11.5184 4.68177C11.5184 3.07931 10.6236 2.10231 9.17638 2.10231C7.72457 2.10231 6.82974 3.07931 6.82974 4.68177C6.82974 6.29337 7.72 7.26581 9.17638 7.26581ZM9.17638 6.39381C8.32264 6.39381 7.84327 5.76835 7.84327 4.68177C7.84327 3.60433 8.32264 2.9743 9.17638 2.9743C10.0255 2.9743 10.5095 3.60433 10.5095 4.68177C10.5095 5.76378 10.0255 6.39381 9.17638 6.39381Z" fill="white"/>
<path d="M19.0998 2.19818H18.1182L17.2325 5.99205H17.1549L16.1323 2.19818H15.1918L14.1691 5.99205H14.0961L13.2058 2.19818H12.2106L13.5802 7.16993H14.5892L15.6118 3.50846H15.6894L16.7166 7.16993H17.7347L19.0998 2.19818Z" fill="white"/>
<path d="M20.2302 7.16993H21.2118V4.26175C21.2118 3.48563 21.6729 3.0017 22.3988 3.0017C23.1247 3.0017 23.4716 3.39889 23.4716 4.19784V7.16993H24.4532V3.95131C24.4532 2.76886 23.8414 2.10231 22.732 2.10231C21.9833 2.10231 21.4903 2.43558 21.2483 2.988H21.1752V2.19818H20.2302V7.16993Z" fill="white"/>
<path d="M25.9991 7.16993H26.9806V0.257874H25.9991V7.16993Z" fill="white"/>
<path d="M30.6722 7.26581C32.1241 7.26581 33.0143 6.29337 33.0143 4.68177C33.0143 3.07931 32.1195 2.10231 30.6722 2.10231C29.2204 2.10231 28.3256 3.07931 28.3256 4.68177C28.3256 6.29337 29.2159 7.26581 30.6722 7.26581ZM30.6722 6.39381C29.8185 6.39381 29.3391 5.76835 29.3391 4.68177C29.3391 3.60433 29.8185 2.9743 30.6722 2.9743C31.5214 2.9743 32.0054 3.60433 32.0054 4.68177C32.0054 5.76378 31.5214 6.39381 30.6722 6.39381Z" fill="white"/>
<path d="M35.9389 6.42577C35.4048 6.42577 35.0167 6.16554 35.0167 5.71813C35.0167 5.27985 35.3272 5.04701 36.012 5.00135L37.2264 4.92374V5.3392C37.2264 5.95553 36.6785 6.42577 35.9389 6.42577ZM35.6878 7.25211C36.3407 7.25211 36.884 6.96905 37.1807 6.47142H37.2583V7.16993H38.2034V3.77325C38.2034 2.72321 37.5003 2.10231 36.2539 2.10231C35.1263 2.10231 34.3228 2.65016 34.2223 3.50389H35.1719C35.2815 3.15236 35.6604 2.95148 36.2083 2.95148C36.8794 2.95148 37.2264 3.24823 37.2264 3.77325V4.2024L35.8796 4.28002C34.6971 4.35306 34.0306 4.86896 34.0306 5.76378C34.0306 6.6723 34.7291 7.25211 35.6878 7.25211Z" fill="white"/>
<path d="M41.5343 7.25211C42.2191 7.25211 42.7989 6.92797 43.0957 6.38468H43.1733V7.16993H44.1138V0.257874H43.1322V2.988H43.0592C42.7898 2.44015 42.2146 2.116 41.5343 2.116C40.2788 2.116 39.4707 3.11127 39.4707 4.68177C39.4707 6.25685 40.2697 7.25211 41.5343 7.25211ZM41.8128 2.99713C42.6346 2.99713 43.1505 3.64999 43.1505 4.68634C43.1505 5.72726 42.6392 6.37098 41.8128 6.37098C40.9819 6.37098 40.4843 5.73639 40.4843 4.68177C40.4843 3.63629 40.9865 2.99713 41.8128 2.99713Z" fill="white"/>
<path d="M50.4789 7.26581C51.9307 7.26581 52.821 6.29337 52.821 4.68177C52.821 3.07931 51.9262 2.10231 50.4789 2.10231C49.0271 2.10231 48.1323 3.07931 48.1323 4.68177C48.1323 6.29337 49.0225 7.26581 50.4789 7.26581ZM50.4789 6.39381C49.6252 6.39381 49.1458 5.76835 49.1458 4.68177C49.1458 3.60433 49.6252 2.9743 50.4789 2.9743C51.3281 2.9743 51.812 3.60433 51.812 4.68177C51.812 5.76378 51.3281 6.39381 50.4789 6.39381Z" fill="white"/>
<path d="M54.1203 7.16993H55.1019V4.26175C55.1019 3.48563 55.563 3.0017 56.2889 3.0017C57.0148 3.0017 57.3618 3.39889 57.3618 4.19784V7.16993H58.3433V3.95131C58.3433 2.76886 57.7316 2.10231 56.6222 2.10231C55.8734 2.10231 55.3804 2.43558 55.1384 2.988H55.0653V2.19818H54.1203V7.16993Z" fill="white"/>
<path d="M62.864 0.96095V2.22101H62.0742V3.04735H62.864V5.85509C62.864 6.81383 63.2977 7.19733 64.3889 7.19733C64.5806 7.19733 64.7632 7.1745 64.923 7.14711V6.32989C64.7861 6.34359 64.6993 6.35272 64.5487 6.35272C64.0602 6.35272 63.8456 6.12445 63.8456 5.60399V3.04735H64.923V2.22101H63.8456V0.96095H62.864Z" fill="white"/>
<path d="M66.2406 7.16993H67.2222V4.26632C67.2222 3.51302 67.6696 3.00626 68.4731 3.00626C69.167 3.00626 69.5368 3.40802 69.5368 4.2024V7.16993H70.5184V3.96044C70.5184 2.77799 69.8656 2.10687 68.8064 2.10687C68.0576 2.10687 67.5326 2.44015 67.2906 2.99713H67.213V0.257874H66.2406V7.16993Z" fill="white"/>
<path d="M74.0594 2.93778C74.7853 2.93778 75.2601 3.44454 75.2829 4.22523H72.7719C72.8267 3.44911 73.3335 2.93778 74.0594 2.93778ZM75.2783 5.8277C75.0957 6.21576 74.6894 6.43033 74.0959 6.43033C73.3106 6.43033 72.8039 5.87792 72.7719 5.00592V4.95113H76.2827V4.60873C76.2827 3.04735 75.4472 2.10231 74.0639 2.10231C72.6623 2.10231 71.7721 3.11127 71.7721 4.70004C71.7721 6.28881 72.6441 7.26581 74.0685 7.26581C75.2053 7.26581 75.9997 6.71796 76.2234 5.8277H75.2783Z" fill="white"/>
</svg>
