<svg width="19" height="15" viewBox="0 0 19 15" fill="none" xmlns="http://www.w3.org/2000/svg">
<path d="M16.2975 0.453369H2.98853C2.44994 0.454164 1.93366 0.668836 1.55292 1.05013C1.17217 1.43143 0.958049 1.94844 0.95752 2.48754V12.4551C0.957784 12.9943 1.17181 13.5111 1.55261 13.8925C1.93341 14.2738 2.44986 14.4882 2.98853 14.4888H16.2975C16.8363 14.4882 17.3528 14.2738 17.7338 13.8925C18.1147 13.5112 18.329 12.9943 18.3295 12.4551V2.48754C18.3287 1.94835 18.1144 1.4314 17.7335 1.05013C17.3526 0.668864 16.8362 0.454163 16.2975 0.453369ZM14.9465 2.4416L9.65253 6.24504L4.51552 2.4416H14.9465ZM16.2975 12.502H2.98853C2.97623 12.5017 2.96453 12.4966 2.95593 12.4878C2.94733 12.479 2.94252 12.4674 2.94252 12.4551V3.74655L9.63452 8.69855L16.3435 3.88194V12.4531C16.3439 12.4594 16.3431 12.4657 16.3409 12.4717C16.3388 12.4776 16.3355 12.4827 16.3312 12.4873C16.3268 12.4919 16.3216 12.4956 16.3158 12.4981C16.3101 12.5006 16.3038 12.502 16.2975 12.502Z" fill="white"/>
</svg>
