<svg width="34" height="33" viewBox="0 0 34 33" fill="none" xmlns="http://www.w3.org/2000/svg">
<path d="M17.1451 0.0449219H16.9411C8.06087 0.0449219 0.862061 7.25053 0.862061 16.1391V16.3433C0.862061 25.2319 8.06087 32.4375 16.9411 32.4375H17.1451C26.0252 32.4375 33.2241 25.2319 33.2241 16.3433V16.1391C33.2241 7.25053 26.0252 0.0449219 17.1451 0.0449219Z" fill="#2560F9"/>
<path d="M14.578 26.0329H18.517V16.1597H21.265L21.558 12.8562H18.517V10.9736C18.517 10.1938 18.673 9.8856 19.426 9.8856H21.558V6.45557H18.83C15.899 6.45557 14.577 7.74752 14.577 10.2209V12.8562H12.53V16.2036H14.579L14.578 26.0329Z" fill="white"/>
</svg>
