<svg width="44" height="8" viewBox="0 0 44 8" fill="none" xmlns="http://www.w3.org/2000/svg">
<path d="M7.15985 4.26723C7.15985 5.18903 6.88705 5.92273 6.34035 6.47053C5.71995 7.12173 4.91036 7.44733 3.91596 7.44733C2.96336 7.44733 2.15266 7.11733 1.48716 6.45733C0.820556 5.79623 0.487255 4.97783 0.487255 4.00103C0.487255 3.02313 0.820556 2.20473 1.48716 1.54473C2.15266 0.883631 2.96336 0.553632 3.91596 0.553632C4.38896 0.553632 4.84105 0.646032 5.27005 0.829732C5.70015 1.01453 6.04445 1.25983 6.30185 1.56673L5.72215 2.14753C5.28545 1.62503 4.68375 1.36433 3.91485 1.36433C3.21965 1.36433 2.61905 1.60853 2.11195 2.09693C1.60485 2.58533 1.35185 3.22003 1.35185 3.99993C1.35185 4.77983 1.60485 5.41453 2.11195 5.90293C2.61905 6.39133 3.21965 6.63553 3.91485 6.63553C4.65185 6.63553 5.26676 6.39023 5.75845 5.89853C6.07746 5.57843 6.26225 5.13293 6.31175 4.56203H3.91485V3.76893H7.11255C7.14555 3.94163 7.15985 4.10773 7.15985 4.26723Z" fill="white"/>
<path d="M12.231 1.51069H9.22576V3.60289H11.9362V4.39599H9.22576V6.48819H12.231V7.29999H8.37766V0.699994H12.231V1.51069Z" fill="white"/>
<path d="M15.8069 7.29999H14.9588V1.51069H13.1152V0.699994H17.6505V1.51069H15.8069V7.29999Z" fill="white"/>
<path d="M20.9318 7.29999V0.699994H21.7799V7.29999H20.9318Z" fill="white"/>
<path d="M25.541 7.29999H24.6929V1.51069H22.8493V0.699994H27.3846V1.51069H25.541V7.29999Z" fill="white"/>
<path d="M35.9698 6.44748C35.3208 7.11408 34.5145 7.44738 33.5498 7.44738C32.5851 7.44738 31.7788 7.11408 31.1309 6.44748C30.4819 5.78088 30.1585 4.96468 30.1585 3.99998C30.1585 3.03528 30.4819 2.21908 31.1309 1.55248C31.7788 0.885883 32.5851 0.551483 33.5498 0.551483C34.509 0.551483 35.3142 0.886983 35.9654 1.55688C36.6166 2.22678 36.9422 3.04078 36.9422 3.99998C36.9422 4.96468 36.6177 5.78088 35.9698 6.44748ZM31.7568 5.89418C32.2452 6.38918 32.8425 6.63558 33.5498 6.63558C34.2571 6.63558 34.8555 6.38808 35.3428 5.89418C35.8312 5.39918 36.0765 4.76778 36.0765 3.99998C36.0765 3.23218 35.8312 2.60078 35.3428 2.10578C34.8555 1.61078 34.2571 1.36438 33.5498 1.36438C32.8425 1.36438 32.2452 1.61188 31.7568 2.10578C31.2695 2.60078 31.0242 3.23218 31.0242 3.99998C31.0242 4.76778 31.2695 5.39918 31.7568 5.89418Z" fill="white"/>
<path d="M38.1324 7.29999V0.699994H39.1642L42.3718 5.83369H42.4081L42.3718 4.56209V0.699994H43.2199V7.29999H42.3344L38.9783 1.91659H38.942L38.9783 3.18819V7.29999H38.1324Z" fill="white"/>
<path d="M7.15985 4.26723C7.15985 5.18903 6.88705 5.92273 6.34035 6.47053C5.71995 7.12173 4.91036 7.44733 3.91596 7.44733C2.96336 7.44733 2.15266 7.11733 1.48716 6.45733C0.820556 5.79623 0.487255 4.97783 0.487255 4.00103C0.487255 3.02313 0.820556 2.20473 1.48716 1.54473C2.15266 0.883631 2.96336 0.553632 3.91596 0.553632C4.38896 0.553632 4.84105 0.646032 5.27005 0.829732C5.70015 1.01453 6.04445 1.25983 6.30185 1.56673L5.72215 2.14753C5.28545 1.62503 4.68375 1.36433 3.91485 1.36433C3.21965 1.36433 2.61905 1.60853 2.11195 2.09693C1.60485 2.58533 1.35185 3.22003 1.35185 3.99993C1.35185 4.77983 1.60485 5.41453 2.11195 5.90293C2.61905 6.39133 3.21965 6.63553 3.91485 6.63553C4.65185 6.63553 5.26676 6.39023 5.75845 5.89853C6.07746 5.57843 6.26225 5.13293 6.31175 4.56203H3.91485V3.76893H7.11255C7.14555 3.94163 7.15985 4.10773 7.15985 4.26723Z" stroke="white" stroke-width="0.2" stroke-miterlimit="10"/>
<path d="M12.231 1.51069H9.22576V3.60289H11.9362V4.39599H9.22576V6.48819H12.231V7.29999H8.37766V0.699994H12.231V1.51069Z" stroke="white" stroke-width="0.2" stroke-miterlimit="10"/>
<path d="M15.8069 7.29999H14.9588V1.51069H13.1152V0.699994H17.6505V1.51069H15.8069V7.29999Z" stroke="white" stroke-width="0.2" stroke-miterlimit="10"/>
<path d="M20.9318 7.29999V0.699994H21.7799V7.29999H20.9318Z" stroke="white" stroke-width="0.2" stroke-miterlimit="10"/>
<path d="M25.541 7.29999H24.6929V1.51069H22.8493V0.699994H27.3846V1.51069H25.541V7.29999Z" stroke="white" stroke-width="0.2" stroke-miterlimit="10"/>
<path d="M35.9698 6.44748C35.3208 7.11408 34.5145 7.44738 33.5498 7.44738C32.5851 7.44738 31.7788 7.11408 31.1309 6.44748C30.4819 5.78088 30.1585 4.96468 30.1585 3.99998C30.1585 3.03528 30.4819 2.21908 31.1309 1.55248C31.7788 0.885883 32.5851 0.551483 33.5498 0.551483C34.509 0.551483 35.3142 0.886983 35.9654 1.55688C36.6166 2.22678 36.9422 3.04078 36.9422 3.99998C36.9422 4.96468 36.6177 5.78088 35.9698 6.44748ZM31.7568 5.89418C32.2452 6.38918 32.8425 6.63558 33.5498 6.63558C34.2571 6.63558 34.8555 6.38808 35.3428 5.89418C35.8312 5.39918 36.0765 4.76778 36.0765 3.99998C36.0765 3.23218 35.8312 2.60078 35.3428 2.10578C34.8555 1.61078 34.2571 1.36438 33.5498 1.36438C32.8425 1.36438 32.2452 1.61188 31.7568 2.10578C31.2695 2.60078 31.0242 3.23218 31.0242 3.99998C31.0242 4.76778 31.2695 5.39918 31.7568 5.89418Z" stroke="white" stroke-width="0.2" stroke-miterlimit="10"/>
<path d="M38.1324 7.29999V0.699994H39.1642L42.3718 5.83369H42.4081L42.3718 4.56209V0.699994H43.2199V7.29999H42.3344L38.9783 1.91659H38.942L38.9783 3.18819V7.29999H38.1324Z" stroke="white" stroke-width="0.2" stroke-miterlimit="10"/>
</svg>
