<svg width="94" height="20" viewBox="0 0 94 20" fill="none" xmlns="http://www.w3.org/2000/svg">
<path d="M29.9496 5.92623C27.3624 5.92623 25.2537 7.89413 25.2537 10.6045C25.2537 13.2984 27.3624 15.2828 29.9496 15.2828C32.5379 15.2828 34.6466 13.2984 34.6466 10.6045C34.6455 7.89413 32.5368 5.92623 29.9496 5.92623ZM29.9496 13.4414C28.5317 13.4414 27.3096 12.2721 27.3096 10.6056C27.3096 8.92153 28.5328 7.76983 29.9496 7.76983C31.3675 7.76983 32.5896 8.92153 32.5896 10.6056C32.5896 12.271 31.3675 13.4414 29.9496 13.4414ZM19.7042 5.92623C17.117 5.92623 15.0083 7.89413 15.0083 10.6045C15.0083 13.2984 17.117 15.2828 19.7042 15.2828C22.2925 15.2828 24.4012 13.2984 24.4012 10.6045C24.4012 7.89413 22.2925 5.92623 19.7042 5.92623ZM19.7042 13.4414C18.2863 13.4414 17.0642 12.2721 17.0642 10.6056C17.0642 8.92153 18.2874 7.76983 19.7042 7.76983C21.1221 7.76983 22.3442 8.92153 22.3442 10.6056C22.3453 12.271 21.1221 13.4414 19.7042 13.4414ZM7.51839 7.36283V9.34723H12.2682C12.1263 10.4637 11.7545 11.2788 11.1869 11.8453C10.4961 12.5361 9.41479 13.2984 7.51839 13.2984C4.59459 13.2984 2.30879 10.9411 2.30879 8.01733C2.30879 5.09353 4.59459 2.73623 7.51839 2.73623C9.09579 2.73623 10.2475 3.35663 11.0978 4.15413L12.4981 2.75383C11.3101 1.61973 9.73379 0.751832 7.51839 0.751832C3.51329 0.751832 0.146194 4.01223 0.146194 8.01733C0.146194 12.0224 3.51329 15.2828 7.51839 15.2828C9.67989 15.2828 11.3112 14.5733 12.5861 13.2445C13.8973 11.9333 14.3054 10.0897 14.3054 8.60143C14.3054 8.14163 14.2702 7.71593 14.1987 7.36173H7.51839V7.36283ZM57.3572 8.90393C56.9678 7.85893 55.7798 5.92623 53.3521 5.92623C50.942 5.92623 48.9389 7.82263 48.9389 10.6045C48.9389 13.2269 50.9244 15.2828 53.582 15.2828C55.7259 15.2828 56.9667 13.9716 57.4815 13.2093L55.8865 12.1456C55.3552 12.9255 54.6281 13.4392 53.582 13.4392C52.537 13.4392 51.7923 12.9607 51.3138 12.0213L57.5695 9.43413L57.3572 8.90393ZM50.9772 10.4637C50.9244 8.65533 52.3775 7.73463 53.4236 7.73463C54.2387 7.73463 54.9295 8.14273 55.1605 8.72683L50.9772 10.4637ZM45.8919 15.0001H47.9467V1.24903H45.8919V15.0001ZM42.5237 6.97233H42.4533C41.9924 6.42233 41.1058 5.92623 39.9904 5.92623C37.6507 5.92623 35.5068 7.98213 35.5068 10.6232C35.5068 13.2456 37.6507 15.2839 39.9904 15.2839C41.1069 15.2839 41.9924 14.7878 42.4533 14.2213H42.5237V14.8945C42.5237 16.6842 41.5667 17.6412 40.0256 17.6412C38.7672 17.6412 37.9873 16.7381 37.6683 15.9758L35.8786 16.7205C36.3923 17.9602 37.7563 19.4848 40.0256 19.4848C42.4357 19.4848 44.474 18.0669 44.474 14.6107V6.21113H42.5248V6.97233H42.5237ZM40.1675 13.4414C38.7496 13.4414 37.5627 12.2534 37.5627 10.6232C37.5627 8.97433 38.7496 7.76983 40.1675 7.76983C41.5667 7.76983 42.6656 8.97433 42.6656 10.6232C42.6656 12.2534 41.5667 13.4414 40.1675 13.4414ZM66.9866 1.24903H62.0685V15.0001H64.12V9.79053H66.9855C69.2603 9.79053 71.4977 8.14383 71.4977 5.52033C71.4977 2.89683 69.2614 1.24903 66.9866 1.24903ZM67.0394 7.87653H64.12V3.16303H67.0394C68.5739 3.16303 69.4451 4.43353 69.4451 5.52033C69.4451 6.58513 68.5739 7.87653 67.0394 7.87653ZM79.7246 5.90203C78.2385 5.90203 76.6996 6.55653 76.0627 8.00743L77.8843 8.76753C78.2737 8.00743 78.9997 7.75883 79.7598 7.75883C80.8213 7.75883 81.9004 8.39573 81.918 9.52763V9.66953C81.5462 9.45723 80.7498 9.13933 79.7774 9.13933C77.8139 9.13933 75.8141 10.2184 75.8141 12.2347C75.8141 14.075 77.4245 15.2597 79.2285 15.2597C80.6079 15.2597 81.3691 14.6404 81.8465 13.9144H81.9169V14.9759H83.8991V9.70363C83.9002 7.26383 82.0764 5.90203 79.7246 5.90203ZM79.476 13.4381C78.805 13.4381 77.8667 13.1015 77.8667 12.2699C77.8667 11.2084 79.0349 10.8014 80.0436 10.8014C80.9445 10.8014 81.3702 10.9961 81.918 11.2612C81.7585 12.5361 80.6618 13.4381 79.476 13.4381ZM91.1173 6.20233L88.7644 12.1643H88.694L86.252 6.20233H84.041L87.7029 14.5348L85.6151 19.1702H87.7557L93.3998 6.20233H91.1173ZM72.6307 15.0001H74.6822V1.24903H72.6307V15.0001Z" fill="white"/>
</svg>
