<svg width="34" height="33" viewBox="0 0 34 33" fill="none" xmlns="http://www.w3.org/2000/svg">
<path d="M17.13 32.4389C12.8383 32.4389 8.72231 30.7323 5.68759 27.6947C2.65288 24.6571 0.947998 20.5372 0.947998 16.2414C0.948263 11.9458 2.65326 7.82606 5.68794 4.78868C8.72263 1.7513 12.8384 0.0449219 17.13 0.0449219C21.4214 0.0451873 25.5369 1.75182 28.5714 4.78917C31.6059 7.82652 33.3107 11.946 33.311 16.2414C33.311 20.5371 31.6062 24.6566 28.5717 27.6942C25.5372 30.7318 21.4216 32.4387 17.13 32.4389Z" fill="#2560F9"/>
<path d="M17.13 8.96293C19.499 8.96293 19.779 8.9717 20.715 9.01474C21.2774 9.02132 21.8346 9.12476 22.362 9.3202C22.7435 9.46834 23.09 9.69468 23.3793 9.98439C23.6685 10.2741 23.8942 10.621 24.042 11.0029C24.2373 11.5309 24.3404 12.0885 24.347 12.6514C24.39 13.5883 24.399 13.8685 24.399 16.2407C24.399 18.613 24.39 18.8922 24.347 19.8291C24.3404 20.392 24.2373 20.9496 24.042 21.4776C23.8942 21.8605 23.668 22.2083 23.378 22.4986C23.088 22.7888 22.7406 23.0152 22.358 23.1632C21.8305 23.3587 21.2734 23.4616 20.711 23.4682C19.775 23.5113 19.495 23.5205 17.126 23.5205C14.757 23.5205 14.476 23.5113 13.54 23.4682C12.9776 23.4615 12.4205 23.3586 11.893 23.1632C11.5105 23.0152 11.1631 22.7888 10.8731 22.4986C10.5831 22.2083 10.3569 21.8605 10.209 21.4776C10.0138 20.9496 9.91062 20.392 9.90402 19.8291C9.86102 18.8922 9.85202 18.612 9.85202 16.2407C9.85202 13.8695 9.86102 13.5883 9.90402 12.6514C9.91062 12.0885 10.0138 11.5309 10.209 11.0029C10.3569 10.62 10.5831 10.2722 10.8731 9.98195C11.1631 9.69168 11.5105 9.46527 11.893 9.31727C12.4205 9.12195 12.9776 9.01851 13.54 9.0118C14.476 8.96876 14.757 8.96 17.126 8.96L17.13 8.96293ZM17.126 7.3584C14.716 7.3584 14.414 7.36912 13.468 7.41216C12.7319 7.42696 12.0036 7.5665 11.314 7.82466C10.7232 8.05285 10.1867 8.40232 9.73889 8.85052C9.29111 9.29872 8.942 9.83584 8.71402 10.4272C8.45607 11.1171 8.31676 11.8456 8.30202 12.582C8.25902 13.5299 8.24902 13.8324 8.24902 16.2447C8.24902 18.6569 8.25902 18.9584 8.30202 19.9053C8.31667 20.6421 8.45598 21.3709 8.71402 22.0611C8.94264 22.6515 9.29203 23.1876 9.73978 23.6349C10.1875 24.0822 10.7237 24.4306 11.314 24.6583C12.0036 24.9167 12.7319 25.0563 13.468 25.0708C14.414 25.1138 14.716 25.125 17.126 25.125C19.536 25.125 19.837 25.1138 20.784 25.0708C21.5198 25.0562 22.2478 24.9166 22.937 24.6583C23.5276 24.431 24.064 24.0827 24.5118 23.6354C24.9596 23.188 25.3088 22.6518 25.537 22.0611C25.7951 21.3709 25.9344 20.6421 25.949 19.9053C25.992 18.9584 26.003 18.6559 26.003 16.2447C26.003 13.8334 25.992 13.5299 25.949 12.582C25.9343 11.8456 25.795 11.1171 25.537 10.4272C25.3095 9.83559 24.9605 9.29829 24.5127 8.85003C24.0648 8.40177 23.5281 8.05241 22.937 7.82466C22.2477 7.5666 21.5198 7.42705 20.784 7.41216C19.837 7.36912 19.535 7.3584 17.126 7.3584Z" fill="white"/>
<path d="M17.13 11.6831C16.2289 11.6829 15.3479 11.9504 14.5985 12.4514C13.8492 12.9524 13.2651 13.6646 12.9201 14.4979C12.5751 15.3312 12.4847 16.2481 12.6604 17.1328C12.8361 18.0176 13.2699 18.8303 13.9071 19.4682C14.5442 20.1061 15.356 20.5404 16.2398 20.7165C17.1236 20.8925 18.0397 20.8026 18.8723 20.4574C19.7048 20.1123 20.4164 19.5275 20.9171 18.7775C21.4178 18.0275 21.685 17.1458 21.685 16.2438C21.6851 15.6449 21.5674 15.0517 21.3385 14.4984C21.1097 13.9451 20.7742 13.4424 20.3512 13.0189C19.9282 12.5954 19.4261 12.2598 18.8734 12.0306C18.3207 11.8014 17.7282 11.6831 17.13 11.6831ZM17.13 19.2037C16.5449 19.2039 15.9728 19.0305 15.4862 18.7052C14.9996 18.3799 14.6204 17.9173 14.3964 17.3762C14.1723 16.8352 14.1137 16.24 14.2278 15.6656C14.3419 15.0911 14.6236 14.5631 15.0374 14.1489C15.4511 13.7348 15.9783 13.4528 16.5522 13.3386C17.126 13.2243 17.7209 13.2829 18.2614 13.5072C18.802 13.7314 19.2639 14.1115 19.5889 14.5986C19.9139 15.0857 20.0872 15.6581 20.087 16.2438C20.087 17.0288 19.7754 17.7816 19.2209 18.3367C18.6664 18.8918 17.9142 19.2037 17.13 19.2037Z" fill="white"/>
<path d="M22.93 11.5022C22.93 11.7129 22.8676 11.9185 22.7507 12.0937C22.6338 12.2688 22.4676 12.4056 22.2732 12.4862C22.0788 12.5668 21.8648 12.5879 21.6584 12.5468C21.452 12.5057 21.2624 12.404 21.1136 12.255C20.9648 12.106 20.8635 11.9166 20.8224 11.7099C20.7814 11.5033 20.8025 11.2891 20.883 11.0945C20.9635 10.8999 21.0999 10.7335 21.2749 10.6164C21.4499 10.4994 21.6556 10.437 21.866 10.437C22.1482 10.437 22.4188 10.5491 22.6184 10.7489C22.8179 10.9487 22.93 11.2197 22.93 11.5022Z" fill="white"/>
</svg>
