<svg width="19" height="19" viewBox="0 0 19 19" fill="none" xmlns="http://www.w3.org/2000/svg">
<path d="M9.79161 2.19254C12.1606 2.19254 12.4406 2.20131 13.3766 2.24435C13.939 2.25094 14.4961 2.35438 15.0236 2.54981C15.4051 2.69795 15.7516 2.9243 16.0408 3.21401C16.3301 3.50372 16.5558 3.85059 16.7036 4.23254C16.8988 4.76052 17.002 5.31812 17.0086 5.88106C17.0516 6.81794 17.0606 7.09814 17.0606 9.47036C17.0606 11.8426 17.0516 12.1218 17.0086 13.0587C17.002 13.6216 16.8988 14.1792 16.7036 14.7072C16.5557 15.0901 16.3296 15.4379 16.0396 15.7282C15.7496 16.0184 15.4021 16.2449 15.0196 16.3929C14.4921 16.5883 13.935 16.6912 13.3726 16.6978C12.4366 16.7409 12.1566 16.7501 9.78761 16.7501C7.41861 16.7501 7.13761 16.7409 6.20161 16.6978C5.63921 16.6911 5.08212 16.5882 4.55461 16.3929C4.17207 16.2449 3.82467 16.0184 3.53467 15.7282C3.24467 15.4379 3.01849 15.0901 2.87062 14.7072C2.67539 14.1792 2.57221 13.6216 2.56561 13.0587C2.52261 12.1218 2.51361 11.8416 2.51361 9.47036C2.51361 7.09914 2.52261 6.81794 2.56561 5.88106C2.57221 5.31812 2.67539 4.76052 2.87062 4.23254C3.01849 3.84964 3.24467 3.50184 3.53467 3.21156C3.82467 2.92129 4.17207 2.69488 4.55461 2.54688C5.08212 2.35156 5.63921 2.24812 6.20161 2.24142C7.13761 2.19838 7.41861 2.18961 9.78761 2.18961L9.79161 2.19254ZM9.78761 0.588013C7.37761 0.588013 7.07561 0.598734 6.12961 0.641774C5.3935 0.656575 4.66522 0.796117 3.97562 1.05427C3.38482 1.28246 2.84827 1.63193 2.40048 2.08013C1.9527 2.52834 1.60359 3.06545 1.37561 3.65681C1.11766 4.3467 0.978354 5.07518 0.963608 5.81166C0.920608 6.75955 0.910614 7.06201 0.910614 9.47427C0.910614 11.8865 0.920608 12.188 0.963608 13.1349C0.978261 13.8717 1.11757 14.6005 1.37561 15.2908C1.60423 15.8812 1.95362 16.4172 2.40137 16.8645C2.84911 17.3118 3.38533 17.6602 3.97562 17.8879C4.66515 18.1463 5.39347 18.2859 6.12961 18.3004C7.07561 18.3435 7.37761 18.3547 9.78761 18.3547C12.1976 18.3547 12.4986 18.3435 13.4456 18.3004C14.1814 18.2858 14.9094 18.1462 15.5986 17.8879C16.1892 17.6607 16.7256 17.3123 17.1734 16.865C17.6212 16.4176 17.9704 15.8814 18.1986 15.2908C18.4566 14.6005 18.596 13.8717 18.6106 13.1349C18.6536 12.188 18.6646 11.8855 18.6646 9.47427C18.6646 7.06301 18.6536 6.75955 18.6106 5.81166C18.5959 5.07518 18.4566 4.3467 18.1986 3.65681C17.9711 3.0652 17.6221 2.5279 17.1743 2.07964C16.7264 1.63139 16.1897 1.28203 15.5986 1.05427C14.9093 0.796209 14.1814 0.656669 13.4456 0.641774C12.4986 0.598734 12.1966 0.588013 9.78761 0.588013Z" fill="white"/>
<path d="M9.79183 4.9126C8.89069 4.9124 8.00974 5.17994 7.26038 5.68094C6.51102 6.18193 5.92691 6.89409 5.58193 7.7274C5.23694 8.5607 5.14657 9.47761 5.32225 10.3623C5.49794 11.247 5.93177 12.0598 6.5689 12.6976C7.20603 13.3355 8.01782 13.7699 8.90163 13.946C9.78543 14.122 10.7015 14.0321 11.5341 13.6869C12.3667 13.3418 13.0783 12.757 13.5789 12.007C14.0796 11.257 14.3468 10.3753 14.3468 9.47327C14.347 8.87442 14.2292 8.28119 14.0004 7.72789C13.7715 7.17458 13.436 6.67189 13.013 6.24839C12.5901 5.8249 12.0879 5.48931 11.5352 5.26011C10.9825 5.03091 10.3901 4.9126 9.79183 4.9126ZM9.79183 12.4332C9.2067 12.4334 8.63467 12.26 8.14807 11.9347C7.66148 11.6094 7.28219 11.1468 7.05819 10.6057C6.83418 10.0647 6.77552 9.46951 6.88962 8.89506C7.00372 8.3206 7.28546 7.79257 7.69921 7.37842C8.11295 6.96426 8.6401 6.68226 9.21399 6.56805C9.78788 6.45383 10.3827 6.51244 10.9233 6.73667C11.4638 6.9609 11.9258 7.34101 12.2507 7.82808C12.5757 8.31516 12.749 8.88756 12.7488 9.47327C12.7488 10.2583 12.4373 11.0111 11.8827 11.5662C11.3282 12.1213 10.5761 12.4332 9.79183 12.4332Z" fill="white"/>
<path d="M15.5914 4.73192C15.5914 4.94259 15.5289 5.14823 15.412 5.3234C15.2951 5.49858 15.1289 5.63531 14.9345 5.71594C14.7401 5.79656 14.5262 5.81765 14.3198 5.77655C14.1134 5.73545 13.9238 5.63369 13.775 5.48472C13.6262 5.33575 13.5248 5.1463 13.4838 4.93967C13.4427 4.73304 13.4638 4.51887 13.5443 4.32423C13.6249 4.12959 13.7613 3.9632 13.9362 3.84615C14.1112 3.7291 14.3169 3.66675 14.5274 3.66675C14.8095 3.66675 15.0802 3.77886 15.2797 3.97862C15.4792 4.17839 15.5914 4.44941 15.5914 4.73192Z" fill="white"/>
</svg>
