<svg width="320" height="654" viewBox="0 0 320 654" fill="none" xmlns="http://www.w3.org/2000/svg">
<g clip-path="url(#clip0_1_4318)">
<rect width="287" height="504" transform="translate(16 15)" fill="white"/>
<path opacity="0.35" d="M275.193 26.1414H287.948C288.864 26.1414 289.607 26.8841 289.607 27.8001V30.7517C289.607 31.6678 288.864 32.4104 287.948 32.4104H275.193C274.277 32.4104 273.535 31.6678 273.535 30.7517V27.8001C273.535 26.8841 274.277 26.1414 275.193 26.1414Z" stroke="black" stroke-width="0.765551"/>
<path opacity="0.4" d="M290.755 28.0345V30.5172C291.371 30.307 291.771 29.8178 291.771 29.2759C291.771 28.7339 291.371 28.2448 290.755 28.0345" fill="black"/>
<path d="M274.683 28.0207C274.683 27.457 275.14 27 275.703 27H287.438C288.002 27 288.459 27.457 288.459 28.0207V30.531C288.459 31.0947 288.002 31.5517 287.438 31.5517H275.703C275.14 31.5517 274.683 31.0947 274.683 30.531V28.0207Z" fill="black"/>
<path fill-rule="evenodd" clip-rule="evenodd" d="M263.455 27.1705C265.151 27.1705 266.782 27.699 268.011 28.6467C268.104 28.7198 268.252 28.7189 268.343 28.6446L269.228 27.9205C269.274 27.8828 269.3 27.8317 269.299 27.7786C269.299 27.7255 269.273 27.6747 269.226 27.6374C266 25.1301 260.911 25.1301 257.685 27.6374C257.638 27.6747 257.611 27.7254 257.611 27.7786C257.61 27.8317 257.636 27.8828 257.682 27.9205L258.567 28.6446C258.658 28.719 258.806 28.72 258.899 28.6467C260.128 27.6989 261.759 27.1705 263.455 27.1705ZM263.455 29.5264C264.387 29.5264 265.286 29.8072 265.976 30.3145C266.07 30.3865 266.217 30.3849 266.308 30.311L267.192 29.5868C267.238 29.5488 267.264 29.4973 267.264 29.4438C267.263 29.3902 267.236 29.3391 267.188 29.3019C265.085 27.7152 261.828 27.7152 259.724 29.3019C259.677 29.3391 259.65 29.3902 259.649 29.4438C259.649 29.4974 259.675 29.5489 259.721 29.5868L260.605 30.311C260.696 30.3849 260.843 30.3865 260.936 30.3145C261.626 29.8076 262.524 29.5267 263.455 29.5264ZM265.226 31.1115C265.227 31.1652 265.201 31.217 265.154 31.2546L263.625 32.5057C263.58 32.5425 263.519 32.5632 263.455 32.5632C263.392 32.5632 263.331 32.5425 263.286 32.5057L261.757 31.2546C261.71 31.217 261.684 31.1652 261.685 31.1115C261.686 31.0578 261.715 31.0069 261.764 30.971C262.741 30.3013 264.17 30.3013 265.147 30.971C265.196 31.007 265.224 31.0578 265.226 31.1115Z" fill="black"/>
<path fill-rule="evenodd" clip-rule="evenodd" d="M252.998 25.9655H252.233C251.81 25.9655 251.467 26.2434 251.467 26.5862V31.9655C251.467 32.3083 251.81 32.5862 252.233 32.5862H252.998C253.421 32.5862 253.764 32.3083 253.764 31.9655V26.5862C253.764 26.2434 253.421 25.9655 252.998 25.9655ZM248.661 27.4138H249.427C249.849 27.4138 250.192 27.6917 250.192 28.0345V31.9655C250.192 32.3083 249.849 32.5862 249.427 32.5862H248.661C248.239 32.5862 247.896 32.3083 247.896 31.9655V28.0345C247.896 27.6917 248.239 27.4138 248.661 27.4138ZM245.855 28.8621H245.09C244.667 28.8621 244.324 29.14 244.324 29.4828V31.9655C244.324 32.3083 244.667 32.5862 245.09 32.5862H245.855C246.278 32.5862 246.62 32.3083 246.62 31.9655V29.4828C246.62 29.14 246.278 28.8621 245.855 28.8621ZM242.284 30.1034H241.518C241.096 30.1034 240.753 30.3813 240.753 30.7241V31.9655C240.753 32.3083 241.096 32.5862 241.518 32.5862H242.284C242.706 32.5862 243.049 32.3083 243.049 31.9655V30.7241C243.049 30.3813 242.706 30.1034 242.284 30.1034Z" fill="black"/>
<path d="M44.5628 32.5384C46.62 32.5384 47.842 31.2337 47.842 29.0243C47.842 28.1923 47.6458 27.4923 47.2702 26.9513C46.7265 26.1102 45.7904 25.6556 44.6077 25.6556C42.8475 25.6556 41.6031 26.6149 41.6031 27.9605C41.6031 29.2243 42.7242 30.1426 44.2657 30.1426C45.213 30.1426 45.981 29.7835 46.3622 29.1607H46.379C46.379 29.1607 46.4014 29.1607 46.407 29.1607C46.4182 29.1607 46.4575 29.1607 46.4575 29.1607C46.4575 30.6609 45.7568 31.5564 44.574 31.5564C43.8789 31.5564 43.3408 31.2473 43.1558 30.7518H41.7152C41.9563 31.8292 43.083 32.5384 44.5628 32.5384ZM44.6133 29.2107C43.6827 29.2107 43.0213 28.6742 43.0213 27.9241C43.0213 27.1922 43.7164 26.633 44.6189 26.633C45.5213 26.633 46.2164 27.2013 46.2164 27.9423C46.2164 28.6742 45.5382 29.2107 44.6133 29.2107Z" fill="black"/>
<path d="M50.2077 32.4747C50.7403 32.4747 51.1046 32.1656 51.1046 31.7565C51.1046 31.3428 50.7403 31.0382 50.2077 31.0382C49.6808 31.0382 49.3109 31.3428 49.3109 31.7565C49.3109 32.1656 49.6808 32.4747 50.2077 32.4747ZM50.2077 29.0652C50.7403 29.0652 51.1046 28.7606 51.1046 28.3515C51.1046 27.9378 50.7403 27.6332 50.2077 27.6332C49.6808 27.6332 49.3109 27.9378 49.3109 28.3515C49.3109 28.7606 49.6808 29.0652 50.2077 29.0652Z" fill="black"/>
<path d="M56.3516 32.3793H57.7361V31.1564H58.8292V30.1653H57.7361V25.8193H55.6957C54.2663 27.565 53.1284 29.0243 52.3997 30.1108V31.1564H56.3516V32.3793ZM53.7394 30.1244C54.6811 28.7788 55.5219 27.7014 56.2955 26.774H56.374V30.1926H53.7394V30.1244Z" fill="black"/>
<path d="M61.9124 32.3793H63.3586V25.8193H61.918L59.8047 27.0195V28.1469L61.8171 27.0013H61.9124V32.3793Z" fill="black"/>
</g>
<path d="M317.247 167.726H318.38C319.006 167.726 319.513 168.235 319.513 168.864V243.188C319.513 243.816 319.006 244.326 318.38 244.326H317.247V167.726Z" fill="#303030"/>
<path d="M2.26019 260.252L1.12714 260.252C0.50138 260.252 -0.0059009 259.743 -0.00590085 259.115L-0.00589695 214.368C-0.0058969 213.74 0.501385 213.231 1.12715 213.231L2.2602 213.231L2.26019 260.252Z" fill="#303030"/>
<path d="M2.26019 198.062L1.12714 198.062C0.50138 198.062 -0.0059009 197.553 -0.00590085 196.925L-0.00589695 152.178C-0.0058969 151.55 0.501385 151.041 1.12715 151.041L2.2602 151.041L2.26019 198.062Z" fill="#333333"/>
<path d="M2.26019 128.289L1.12715 128.289C0.501384 128.289 -0.00589767 127.779 -0.00589761 127.151L-0.0058957 105.157C-0.00589564 104.529 0.501386 104.019 1.12715 104.019L2.26019 104.019L2.26019 128.289Z" fill="#333333"/>
<path fill-rule="evenodd" clip-rule="evenodd" d="M4.66325 34.9385C2.26019 42.3642 2.26019 51.5397 2.26019 69.8908V582.578C2.26019 600.929 2.26019 610.104 4.66325 617.53C9.51998 632.538 21.239 644.304 36.1865 649.181C43.5823 651.593 52.721 651.593 70.9982 651.593H248.509C266.786 651.593 275.924 651.593 283.32 649.181C298.268 644.304 309.987 632.538 314.843 617.53C317.247 610.104 317.247 600.929 317.247 582.578V69.8908C317.247 51.5397 317.247 42.3642 314.843 34.9385C309.987 19.9307 298.268 8.16434 283.32 3.288C275.924 0.875244 266.786 0.875244 248.509 0.875244H70.9982C52.721 0.875244 43.5823 0.875244 36.1865 3.288C21.239 8.16434 9.51998 19.9307 4.66325 34.9385ZM82.3293 19.4564V22.8692L82.3832 22.8675L82.329 23.2484C82.329 32.2539 89.6001 39.5543 98.5693 39.5543H220.938C229.907 39.5543 237.178 32.2539 237.178 23.2484L237.124 22.8675L237.178 22.8692V19.4564C237.178 17.1526 239.038 15.2851 241.333 15.2851L251.062 15.2851C266.272 15.2851 273.877 15.2851 279.942 17.5862C289.475 21.2031 297.001 28.7589 300.603 38.3307C302.895 44.4205 302.895 52.0561 302.895 67.3274V585.141C302.895 600.412 302.895 608.048 300.603 614.138C297.001 623.71 289.475 631.266 279.942 634.882C273.877 637.183 266.272 637.183 251.062 637.183H68.4455C53.2356 637.183 45.6307 637.183 39.5654 634.882C30.0321 631.266 22.5067 623.71 18.9043 614.138C16.6125 608.048 16.6125 600.412 16.6125 585.141V67.3273C16.6125 52.0561 16.6125 44.4205 18.9043 38.3307C22.5067 28.7589 30.0321 21.2031 39.5654 17.5862C45.6307 15.2851 53.2356 15.2851 68.4455 15.2851L78.1748 15.2851C80.4693 15.2851 82.3293 17.1526 82.3293 19.4564Z" fill="#333333"/>
<path fill-rule="evenodd" clip-rule="evenodd" d="M248.811 2.3922H70.6965C52.6416 2.3922 43.7933 2.40156 36.6537 4.73072C22.1662 9.45702 10.8077 20.8613 6.10044 35.4074C3.78064 42.5758 3.77132 51.4598 3.77132 69.5875V582.881C3.77132 601.009 3.78064 609.893 6.10044 617.062C10.8077 631.608 22.1662 643.012 36.6537 647.738C43.7933 650.067 52.6416 650.077 70.6965 650.077H248.811C266.866 650.077 275.714 650.067 282.854 647.738C297.342 643.012 308.7 631.608 313.407 617.062C315.727 609.893 315.736 601.009 315.736 582.881V69.5876C315.736 51.4598 315.727 42.5758 313.407 35.4074C308.7 20.8613 297.342 9.45702 282.854 4.73072C275.714 2.40156 266.866 2.3922 248.811 2.3922ZM5.38205 35.173C3.01596 42.4845 3.01596 51.5188 3.01596 69.5875V582.881C3.01596 600.95 3.01596 609.984 5.38205 617.296C10.1641 632.073 21.7028 643.658 36.4203 648.459C43.7024 650.835 52.7004 650.835 70.6965 650.835H248.811C266.807 650.835 275.805 650.835 283.087 648.459C297.805 643.658 309.344 632.073 314.126 617.296C316.492 609.984 316.492 600.95 316.492 582.881V69.5876C316.492 51.5188 316.492 42.4845 314.126 35.173C309.344 20.3961 297.805 8.81075 283.087 4.00943C275.805 1.63379 266.807 1.63379 248.811 1.63379H70.6965C52.7004 1.63379 43.7024 1.63379 36.4203 4.00943C21.7028 8.81075 10.1641 20.3961 5.38205 35.173Z" fill="#303030"/>
<path fill-rule="evenodd" clip-rule="evenodd" d="M8.25727 36.1103C6.03906 42.9648 6.03906 51.4345 6.03906 68.374V584.095C6.03906 601.034 6.03906 609.504 8.25727 616.358C12.7404 630.212 23.558 641.073 37.3556 645.574C44.1826 647.801 52.6182 647.801 69.4896 647.801H250.021C266.893 647.801 275.328 647.801 282.155 645.574C295.953 641.073 306.771 630.212 311.254 616.358C313.472 609.504 313.472 601.034 313.472 584.095V68.374C313.472 51.4345 313.472 42.9648 311.254 36.1103C306.771 22.2569 295.953 11.3957 282.155 6.89446C275.328 4.6673 266.893 4.6673 250.021 4.6673H69.4896C52.6182 4.6673 44.1826 4.6673 37.3556 6.89446C23.558 11.3957 12.7404 22.2569 8.25727 36.1103ZM82.3305 19.4563V22.8692L82.3844 22.8675L82.3302 23.2484C82.3302 32.2539 89.6013 39.5543 98.5705 39.5543H220.939C229.909 39.5543 237.18 32.2539 237.18 23.2484L237.125 22.8675L237.179 22.8692V19.4563C237.179 17.1526 239.039 15.2851 241.334 15.2851L251.063 15.2851C266.273 15.2851 273.878 15.2851 279.943 17.5862C289.477 21.2031 297.002 28.7589 300.604 38.3307C302.896 44.4204 302.896 52.0561 302.896 67.3273V585.141C302.896 600.412 302.896 608.048 300.604 614.138C297.002 623.71 289.477 631.265 279.943 634.882C273.878 637.183 266.273 637.183 251.063 637.183H68.4466C53.2368 637.183 45.6319 637.183 39.5666 634.882C30.0333 631.265 22.5078 623.71 18.9055 614.138C16.6136 608.048 16.6136 600.412 16.6136 585.141V67.3273C16.6136 52.0561 16.6136 44.4204 18.9055 38.3307C22.5078 28.7589 30.0333 21.2031 39.5666 17.5862C45.6319 15.2851 53.2368 15.2851 68.4467 15.2851L78.176 15.2851C80.4705 15.2851 82.3305 17.1526 82.3305 19.4563Z" fill="#121515"/>
<rect x="250.02" y="0.875244" width="4.53216" height="3.79206" fill="#414141"/>
<rect x="313.471" y="66.0988" width="3.77687" height="4.55047" fill="#414141"/>
<rect x="2.26129" y="66.0988" width="3.77682" height="4.55047" fill="#414141"/>
<rect x="2.26129" y="581.819" width="3.77682" height="4.55046" fill="#414141"/>
<rect x="313.471" y="581.819" width="3.77687" height="4.55046" fill="#414141"/>
<rect x="64.956" y="647.801" width="4.53218" height="3.79206" fill="#414141"/>
<path fill-rule="evenodd" clip-rule="evenodd" d="M191.857 31.2118C195.195 31.2118 197.9 28.4953 197.9 25.1445C197.9 21.7936 195.195 19.0771 191.857 19.0771C188.52 19.0771 185.814 21.7936 185.814 25.1445C185.814 28.4953 188.52 31.2118 191.857 31.2118Z" fill="#262C2D"/>
<path fill-rule="evenodd" clip-rule="evenodd" d="M191.856 28.9365C193.942 28.9365 195.633 27.2388 195.633 25.1445C195.633 23.0502 193.942 21.3524 191.856 21.3524C189.771 21.3524 188.08 23.0502 188.08 25.1445C188.08 27.2388 189.771 28.9365 191.856 28.9365Z" fill="#121515"/>
<path opacity="0.4" fill-rule="evenodd" clip-rule="evenodd" d="M191.858 24.3867C192.275 24.3867 192.613 24.047 192.613 23.628C192.613 23.2089 192.275 22.8692 191.858 22.8692C191.44 22.8692 191.102 23.2089 191.102 23.628C191.102 24.047 191.44 24.3867 191.858 24.3867Z" fill="#636F73"/>
<path fill-rule="evenodd" clip-rule="evenodd" d="M141.248 25.1444C141.248 23.8879 142.267 22.8692 143.524 22.8692H175.986C177.242 22.8692 178.261 23.8879 178.261 25.1444V25.1444C178.261 26.401 177.242 27.4197 175.986 27.4197H143.524C142.267 27.4197 141.248 26.401 141.248 25.1444V25.1444Z" fill="#262C2D"/>
<defs>
<clipPath id="clip0_1_4318">
<rect width="287" height="504" fill="white" transform="translate(16 15)"/>
</clipPath>
</defs>
</svg>
