<svg width="18" height="17" viewBox="0 0 18 17" fill="none" xmlns="http://www.w3.org/2000/svg">
<path d="M4.52429 5.86206H1.17529V16.6907H4.52429V5.86206Z" fill="white"/>
<path d="M2.83355 4.44632C3.22994 4.45029 3.61858 4.33587 3.9501 4.11823C4.28162 3.90059 4.54104 3.58952 4.69549 3.22393C4.84993 2.85835 4.89242 2.45492 4.81753 2.06511C4.74263 1.67531 4.55373 1.3165 4.27483 1.0344C3.99594 0.7523 3.63965 0.559816 3.25116 0.480902C2.86266 0.401988 2.45948 0.440428 2.09286 0.591405C1.72624 0.742383 1.41271 0.998977 1.19205 1.32875C0.971387 1.65852 0.853566 2.04661 0.853546 2.44356C0.852098 2.70529 0.90217 2.96449 1.00092 3.20682C1.09966 3.44915 1.24516 3.66966 1.42905 3.85566C1.61293 4.04166 1.8316 4.18952 2.0726 4.29083C2.31359 4.39214 2.57218 4.44514 2.83355 4.44632Z" fill="white"/>
<path d="M9.87753 11.0061C9.87753 9.48373 10.5775 8.57714 11.9185 8.57714C13.1495 8.57714 13.7415 9.4477 13.7415 11.0061V16.6906H17.0745V9.83416C17.0745 6.93148 15.4315 5.53038 13.1375 5.53038C12.486 5.52153 11.8433 5.68153 11.272 5.99516C10.7007 6.30879 10.2203 6.76544 9.87753 7.32012V5.86076H6.66553V16.6896H9.87753V11.0061Z" fill="white"/>
</svg>
