<svg width="33" height="33" viewBox="0 0 33 33" fill="none" xmlns="http://www.w3.org/2000/svg">
<path d="M16.7669 32.4389C12.4754 32.4387 8.35969 30.7318 5.3252 27.6942C2.2907 24.6566 0.585937 20.5371 0.585938 16.2414C0.586203 11.946 2.29106 7.82652 5.32553 4.78917C8.36 1.75182 12.4756 0.0451873 16.7669 0.0449219C21.0584 0.0449219 25.1741 1.75127 28.2086 4.78868C31.2432 7.82609 32.9479 11.9459 32.9479 16.2414C32.9481 18.3685 32.5296 20.4746 31.7165 22.4397C30.9034 24.4048 29.7115 26.1906 28.209 27.6947C26.7064 29.1988 24.9226 30.3918 22.9594 31.2058C20.9961 32.0198 18.8919 32.4389 16.7669 32.4389Z" fill="#2560F9"/>
<path d="M12.7789 12.6318H9.42993V23.4605H12.7789V12.6318Z" fill="white"/>
<path d="M11.0879 11.2163C11.4843 11.2203 11.873 11.1059 12.2045 10.8882C12.536 10.6706 12.7954 10.3595 12.9499 9.99395C13.1043 9.62837 13.1468 9.22494 13.0719 8.83513C12.997 8.44533 12.8081 8.08651 12.5292 7.80442C12.2503 7.52232 11.894 7.32984 11.5055 7.25092C11.1171 7.17201 10.7139 7.21045 10.3473 7.36142C9.98064 7.5124 9.6671 7.769 9.44644 8.09877C9.22578 8.42854 9.10796 8.81663 9.10794 9.21358C9.10649 9.47531 9.15656 9.73451 9.25531 9.97684C9.35406 10.2192 9.49955 10.4397 9.68344 10.6257C9.86733 10.8117 10.086 10.9595 10.327 11.0609C10.568 11.1622 10.8266 11.2152 11.0879 11.2163Z" fill="white"/>
<path d="M18.1319 17.7764C18.1319 16.254 18.8319 15.3474 20.1729 15.3474C21.4039 15.3474 21.9959 16.218 21.9959 17.7764V23.4608H25.3289V16.6044C25.3289 13.7017 23.6859 12.3006 21.3919 12.3006C20.7404 12.2918 20.0977 12.4518 19.5264 12.7654C18.9551 13.0791 18.4747 13.5357 18.1319 14.0904V12.631H14.9199V23.4599H18.1319V17.7764Z" fill="white"/>
</svg>
