<svg width="12" height="15" viewBox="0 0 12 15" fill="none" xmlns="http://www.w3.org/2000/svg">
<path d="M6.05518 14.4316C6.05518 14.4316 11.3052 9.45639 11.3052 5.68164C11.3052 4.28925 10.7521 2.9539 9.76749 1.96933C8.78292 0.984764 7.44756 0.431641 6.05518 0.431641C4.66279 0.431641 3.32743 0.984764 2.34287 1.96933C1.3583 2.9539 0.805176 4.28925 0.805176 5.68164C0.805176 9.45639 6.05518 14.4316 6.05518 14.4316ZM6.05518 8.30664C5.35898 8.30664 4.6913 8.03008 4.19902 7.5378C3.70674 7.04551 3.43018 6.37783 3.43018 5.68164C3.43018 4.98545 3.70674 4.31777 4.19902 3.82549C4.6913 3.3332 5.35898 3.05664 6.05518 3.05664C6.75137 3.05664 7.41905 3.3332 7.91133 3.82549C8.40361 4.31777 8.68018 4.98545 8.68018 5.68164C8.68018 6.37783 8.40361 7.04551 7.91133 7.5378C7.41905 8.03008 6.75137 8.30664 6.05518 8.30664Z" fill="#179BD6"/>
</svg>
