<svg width="12" height="14" viewBox="0 0 12 14" fill="none" xmlns="http://www.w3.org/2000/svg">
<path d="M10.0165 13.0081H6.92898C7.44922 12.5435 7.93977 12.0467 8.39773 11.5206C10.1102 9.55181 11.0165 7.47056 11.0165 5.50806C11.0165 4.04937 10.437 2.65042 9.40557 1.61897C8.37412 0.587519 6.97517 0.00805664 5.51648 0.00805664C4.05779 0.00805664 2.65884 0.587519 1.62739 1.61897C0.595942 2.65042 0.0164795 4.04937 0.0164795 5.50806C0.0164795 7.47056 0.922729 9.55181 2.64148 11.5206C3.0978 12.0482 3.58845 12.5451 4.11023 13.0081H1.01648C0.883871 13.0081 0.756694 13.0607 0.662926 13.1545C0.569158 13.2483 0.516479 13.3754 0.516479 13.5081C0.516479 13.6407 0.569158 13.7678 0.662926 13.8616C0.756694 13.9554 0.883871 14.0081 1.01648 14.0081H10.0165C10.1491 14.0081 10.2763 13.9554 10.37 13.8616C10.4638 13.7678 10.5165 13.6407 10.5165 13.5081C10.5165 13.3754 10.4638 13.2483 10.37 13.1545C10.2763 13.0607 10.1491 13.0081 10.0165 13.0081ZM1.01648 5.50806C1.01648 4.31458 1.49059 3.16999 2.3345 2.32608C3.17841 1.48216 4.32301 1.00806 5.51648 1.00806C6.70995 1.00806 7.85455 1.48216 8.69846 2.32608C9.54237 3.16999 10.0165 4.31458 10.0165 5.50806C10.0165 9.08306 6.54773 12.0706 5.51648 12.8831C4.48523 12.0706 1.01648 9.08306 1.01648 5.50806ZM8.01648 5.50806C8.01648 5.0136 7.86986 4.53025 7.59515 4.11913C7.32045 3.70801 6.93 3.38758 6.47319 3.19836C6.01637 3.00914 5.51371 2.95963 5.02875 3.05609C4.5438 3.15256 4.09834 3.39066 3.74871 3.74029C3.39908 4.08992 3.16098 4.53538 3.06452 5.02033C2.96805 5.50528 3.01756 6.00795 3.20678 6.46477C3.396 6.92158 3.71643 7.31203 4.12755 7.58673C4.53868 7.86143 5.02203 8.00806 5.51648 8.00806C6.17952 8.00806 6.81541 7.74466 7.28425 7.27582C7.75309 6.80698 8.01648 6.1711 8.01648 5.50806ZM4.01648 5.50806C4.01648 5.21138 4.10445 4.92137 4.26928 4.6747C4.4341 4.42803 4.66837 4.23577 4.94245 4.12224C5.21654 4.00871 5.51814 3.979 5.80911 4.03688C6.10009 4.09476 6.36736 4.23762 6.57714 4.4474C6.78692 4.65718 6.92978 4.92445 6.98766 5.21542C7.04554 5.50639 7.01583 5.80799 6.9023 6.08208C6.78877 6.35617 6.59651 6.59044 6.34983 6.75526C6.10316 6.92008 5.81315 7.00806 5.51648 7.00806C5.11916 7.00641 4.73859 6.84785 4.45764 6.5669C4.17669 6.28595 4.01812 5.90537 4.01648 5.50806Z" fill="#F16C5C"/>
</svg>
