<svg width="33" height="33" viewBox="0 0 33 33" fill="none" xmlns="http://www.w3.org/2000/svg">
<path d="M16.507 0.0449219H16.303C7.42281 0.0449219 0.223999 7.25053 0.223999 16.1391V16.3433C0.223999 25.2319 7.42281 32.4375 16.303 32.4375H16.507C25.3872 32.4375 32.586 25.2319 32.586 16.3433V16.1391C32.586 7.25053 25.3872 0.0449219 16.507 0.0449219Z" fill="#2560F9"/>
<path d="M23.0591 9.22363H9.75012C9.21154 9.22443 8.69526 9.4391 8.31451 9.82039C7.93377 10.2017 7.71965 10.7187 7.71912 11.2578V21.2253C7.71938 21.7645 7.93341 22.2814 8.31421 22.6627C8.69501 23.0441 9.21146 23.2585 9.75012 23.259H23.0591C23.5979 23.2585 24.1144 23.0441 24.4954 22.6627C24.8763 22.2814 25.0906 21.7646 25.0911 21.2253V11.2578C25.0903 10.7186 24.876 10.2017 24.4951 9.82039C24.1142 9.43913 23.5978 9.22443 23.0591 9.22363ZM21.7081 11.2119L16.4141 15.0153L11.2771 11.2119H21.7081ZM23.0591 21.2723H9.75012C9.73783 21.272 9.72613 21.2669 9.71753 21.2581C9.70893 21.2493 9.70411 21.2376 9.70412 21.2253V12.5168L16.3961 17.4688L23.1051 12.6522V21.2234C23.1055 21.2297 23.1047 21.236 23.1025 21.242C23.1004 21.2479 23.0971 21.253 23.0928 21.2576C23.0884 21.2622 23.0832 21.2658 23.0774 21.2683C23.0717 21.2708 23.0654 21.2723 23.0591 21.2723Z" fill="white"/>
</svg>
