<svg width="15" height="12" viewBox="0 0 15 12" fill="none" xmlns="http://www.w3.org/2000/svg">
<path d="M0.653137 3.76582V9.43668C0.653137 10.0429 0.893953 10.6243 1.32261 11.0529C1.75126 11.4816 2.33264 11.7224 2.93885 11.7224H12.0817C12.6879 11.7224 13.2693 11.4816 13.698 11.0529C14.1266 10.6243 14.3674 10.0429 14.3674 9.43668V2.57954C14.3674 1.97333 14.1266 1.39195 13.698 0.963293C13.2693 0.534639 12.6879 0.293823 12.0817 0.293823H2.93885C2.33264 0.293823 1.75126 0.534639 1.32261 0.963293C0.893953 1.39195 0.653137 1.97333 0.653137 2.57954V3.76582ZM2.93885 1.43668H12.0817C12.3848 1.43668 12.6755 1.55709 12.8898 1.77142C13.1042 1.98574 13.2246 2.27643 13.2246 2.57954V3.42525L7.51028 6.50182L1.79599 3.42525V2.57954C1.79599 2.27643 1.9164 1.98574 2.13073 1.77142C2.34506 1.55709 2.63575 1.43668 2.93885 1.43668ZM1.79599 4.72354L7.23942 7.65382C7.32267 7.69864 7.41574 7.7221 7.51028 7.7221C7.60482 7.7221 7.69789 7.69864 7.78114 7.65382L13.2246 4.72354V9.43668C13.2246 9.73979 13.1042 10.0305 12.8898 10.2448C12.6755 10.4591 12.3848 10.5795 12.0817 10.5795H2.93885C2.63575 10.5795 2.34506 10.4591 2.13073 10.2448C1.9164 10.0305 1.79599 9.73979 1.79599 9.43668V4.72354Z" fill="#F16C5C"/>
</svg>
