<svg width="15" height="12" viewBox="0 0 15 12" fill="none" xmlns="http://www.w3.org/2000/svg">
<path d="M6.18018 11.0238C6.18018 11.0238 5.30518 11.0238 5.30518 10.1488C5.30518 9.2738 6.18018 6.6488 9.68018 6.6488C13.1802 6.6488 14.0552 9.2738 14.0552 10.1488C14.0552 11.0238 13.1802 11.0238 13.1802 11.0238H6.18018ZM9.68018 5.7738C10.3764 5.7738 11.044 5.49724 11.5363 5.00496C12.0286 4.51268 12.3052 3.845 12.3052 3.1488C12.3052 2.45261 12.0286 1.78493 11.5363 1.29265C11.044 0.800366 10.3764 0.523804 9.68018 0.523804C8.98398 0.523804 8.3163 0.800366 7.82402 1.29265C7.33174 1.78493 7.05518 2.45261 7.05518 3.1488C7.05518 3.845 7.33174 4.51268 7.82402 5.00496C8.3163 5.49724 8.98398 5.7738 9.68018 5.7738ZM4.61918 11.0238C4.48946 10.7506 4.42477 10.4512 4.43018 10.1488C4.43018 8.96318 5.02518 7.74255 6.12418 6.8938C5.57563 6.72478 5.00413 6.64213 4.43018 6.6488C0.930176 6.6488 0.0551758 9.2738 0.0551758 10.1488C0.0551758 11.0238 0.930176 11.0238 0.930176 11.0238H4.61918ZM3.99268 5.7738C4.57284 5.7738 5.12924 5.54334 5.53947 5.1331C5.94971 4.72286 6.18018 4.16646 6.18018 3.5863C6.18018 3.00614 5.94971 2.44974 5.53947 2.03951C5.12924 1.62927 4.57284 1.3988 3.99268 1.3988C3.41251 1.3988 2.85612 1.62927 2.44588 2.03951C2.03564 2.44974 1.80518 3.00614 1.80518 3.5863C1.80518 4.16646 2.03564 4.72286 2.44588 5.1331C2.85612 5.54334 3.41251 5.7738 3.99268 5.7738Z" fill="white"/>
</svg>
