<svg width="15" height="16" viewBox="0 0 15 16" fill="none" xmlns="http://www.w3.org/2000/svg">
<path d="M6.54627 4.16804L4.29093 1.5647C4.03093 1.2647 3.55427 1.26604 3.25227 1.5687L1.3976 3.4267C0.8456 3.97937 0.6876 4.80004 1.00693 5.45804C2.91468 9.40801 6.1003 12.5981 10.0476 14.5114C10.7049 14.8307 11.5249 14.6727 12.0769 14.12L13.9489 12.2447C14.2523 11.9414 14.2529 11.462 13.9503 11.202L11.3369 8.9587C11.0636 8.72404 10.6389 8.7547 10.3649 9.02937L9.4556 9.94004C9.40905 9.98883 9.34777 10.021 9.28117 10.0316C9.21457 10.0422 9.14633 10.0306 9.08693 9.9987C7.60056 9.14277 6.36759 7.90819 5.5136 6.4207C5.48162 6.3612 5.47004 6.29285 5.48063 6.22614C5.49123 6.15943 5.52342 6.09803 5.57227 6.05137L6.47893 5.14404C6.7536 4.86804 6.7836 4.44137 6.54627 4.16737V4.16804Z" stroke="#F16C5C" stroke-width="1.2" stroke-linecap="round" stroke-linejoin="round"/>
</svg>
