<svg width="16" height="21" viewBox="0 0 16 21" fill="none" xmlns="http://www.w3.org/2000/svg">
<path d="M2.76041 11.9775C2.81385 12.0056 2.87318 12.0204 2.93353 12.021C2.99388 12.0217 3.05351 12.0079 3.10751 11.981C3.16152 11.954 3.20835 11.9148 3.24414 11.8661C3.27994 11.8175 3.30366 11.761 3.31339 11.7014C3.36339 11.5082 3.48439 11.0185 3.53839 10.8143C3.58156 10.7083 3.5894 10.5914 3.56076 10.4805C3.53212 10.3696 3.46851 10.2709 3.3794 10.199C2.87757 9.5915 2.61824 8.81949 2.6514 8.03192C2.64284 7.32198 2.77871 6.61781 3.05072 5.9621C3.32273 5.30639 3.7252 4.71284 4.23364 4.21778C4.74209 3.72271 5.34586 3.33649 6.00821 3.08243C6.67056 2.82836 7.37763 2.71165 8.0864 2.73982C11.0504 2.73982 12.6794 4.55249 12.6794 6.97477C12.6794 10.1598 11.2704 12.8485 9.17941 12.8485C8.9124 12.8622 8.64589 12.813 8.40137 12.7048C8.15684 12.5966 7.94114 12.4323 7.77158 12.2253C7.60202 12.0184 7.48335 11.7744 7.42514 11.5132C7.36693 11.252 7.37078 10.9809 7.4364 10.7215C7.87281 9.44454 8.19901 8.13253 8.41141 6.7998C8.43698 6.59018 8.41741 6.37759 8.35403 6.17617C8.29066 5.97474 8.18494 5.78883 8.04398 5.63171C7.90301 5.47459 7.73009 5.34981 7.5368 5.26515C7.34352 5.1805 7.13436 5.13802 6.9234 5.14101C5.7424 5.14101 4.7934 6.3631 4.7934 8.00065C4.78596 8.60198 4.90628 9.1981 5.14639 9.74937C5.14639 9.74937 3.93841 14.8733 3.72641 15.7702C3.47651 17.1577 3.46533 18.5777 3.69339 19.969C3.69796 19.9974 3.71086 20.0241 3.73044 20.0452C3.75002 20.0664 3.7754 20.0815 3.80341 20.0882C3.83142 20.095 3.8608 20.0933 3.88785 20.0833C3.91489 20.0734 3.93841 20.0553 3.95541 20.032C4.82716 18.9537 5.50183 17.73 5.9484 16.4168C6.0834 15.9253 6.7254 13.3797 6.7254 13.3797C7.02444 13.817 7.42833 14.1725 7.90006 14.413C8.37178 14.6534 8.89623 14.7711 9.42538 14.756C12.9744 14.756 15.3814 11.518 15.3814 7.18396C15.3814 3.90686 12.6084 0.854248 8.3934 0.854248C3.1484 0.854248 0.504396 4.61871 0.504396 7.76067C0.503396 9.65746 1.21941 11.348 2.76041 11.9775Z" fill="white"/>
</svg>
