<svg width="9" height="12" viewBox="0 0 9 12" fill="none" xmlns="http://www.w3.org/2000/svg">
<path d="M0.0658274 11.0238V6.94047C0.0658274 6.61964 0.180161 6.34489 0.408827 6.11622C0.637494 5.88755 0.91205 5.77342 1.23249 5.7738H1.81583V4.60714H1.23249C0.911661 4.60714 0.636911 4.4928 0.408244 4.26414C0.179577 4.03547 0.0654385 3.76092 0.0658274 3.44047V1.69047C0.0658274 1.36964 0.180161 1.09489 0.408827 0.866221C0.637494 0.637555 0.91205 0.523416 1.23249 0.523805H7.06583C7.38666 0.523805 7.66141 0.638138 7.89008 0.866805C8.11874 1.09547 8.23288 1.37003 8.23249 1.69047V3.44047C8.23249 3.7613 8.11816 4.03605 7.88949 4.26472C7.66083 4.49339 7.38627 4.60753 7.06583 4.60714H6.48249V5.7738H7.06583C7.38666 5.7738 7.66141 5.88814 7.89008 6.1168C8.11874 6.34547 8.23288 6.62003 8.23249 6.94047V11.0238H7.06583V9.2738H1.23249V11.0238H0.0658274ZM2.98249 5.7738H5.31583V4.60714H2.98249V5.7738Z" fill="white"/>
</svg>
