<svg width="14" height="13" viewBox="0 0 14 13" fill="none" xmlns="http://www.w3.org/2000/svg">
<path d="M13.9291 5.35154C13.9299 5.49216 13.829 5.62554 13.728 5.72766L10.9075 8.50899L11.601 12.4114C11.6092 12.4661 11.6094 12.513 11.6097 12.5677C11.6109 12.7708 11.5181 12.9588 11.2916 12.96C11.1822 12.9607 11.0726 12.9222 10.9786 12.868L7.46058 11.0438L3.96305 12.907C3.86179 12.9622 3.76045 13.0018 3.65108 13.0025C3.42452 13.0037 3.32192 12.8168 3.32079 12.6137C3.32049 12.559 3.32804 12.5121 3.33555 12.4573L3.98573 8.5474L1.12668 5.7976C1.03236 5.69656 0.930065 5.56432 0.929285 5.42369C0.927984 5.18932 1.16965 5.09423 1.36478 5.06189L5.28343 4.46983L7.02149 0.905435C7.09098 0.75661 7.22283 0.584001 7.40252 0.583004C7.5822 0.582007 7.71597 0.753142 7.7871 0.901186L9.56462 4.44606L13.4896 4.9946C13.6773 5.02481 13.9278 5.11717 13.9291 5.35154Z" fill="#F8D830"/>
</svg>
