<svg width="20" height="20" viewBox="0 0 20 20" fill="none" xmlns="http://www.w3.org/2000/svg">
<path fill-rule="evenodd" clip-rule="evenodd" d="M18.5099 10.65C18.1161 10.2589 18.1161 9.62182 18.5099 9.23073L19.5525 8.19556C20.0764 7.69246 19.8321 6.79837 19.145 6.63166L17.7388 6.26756C17.1965 6.12713 16.8753 5.5686 17.0267 5.02922L17.4258 3.6075C17.6165 2.91594 16.9737 2.26366 16.2923 2.45719L14.9183 2.85444C14.3745 3.01166 13.8087 2.68658 13.6707 2.1376L13.3124 0.71244C13.1508 0.0262704 12.2596 -0.22468 11.7715 0.298854L10.7747 1.34047C10.3809 1.75197 9.72348 1.75197 9.32971 1.34047L8.33298 0.298893C7.85034 -0.21871 6.95547 0.018439 6.79199 0.712479L6.43371 2.13764C6.2957 2.68662 5.72994 3.0117 5.18615 2.85449L3.81209 2.45723C3.13046 2.26362 2.48793 2.91614 2.67862 3.60754L3.07771 5.02926C3.22912 5.56864 2.90793 6.12717 2.36559 6.2676L0.959396 6.6317C0.271999 6.79845 0.0282305 7.69269 0.551842 8.19556L1.59441 9.23072C1.98831 9.62181 1.9883 10.2589 1.5944 10.65L0.551842 11.6851C0.0280012 12.1882 0.272266 13.0823 0.959358 13.249L2.36555 13.6131C2.90789 13.7535 3.22908 14.3121 3.07767 14.8514L2.67858 16.2732C2.48785 16.9647 3.13061 17.617 3.81205 17.4235L5.18607 17.0262C5.72986 16.869 6.29562 17.1941 6.43364 17.7431L6.79192 19.1682C6.96155 19.8884 7.8503 20.0994 8.3329 19.5818L9.33226 18.5452C9.72553 18.1373 10.3789 18.1373 10.7721 18.5452L11.7714 19.5818C12.2491 20.1047 13.1466 19.872 13.3124 19.1682L13.6707 17.7431C13.8087 17.1941 14.3745 16.869 14.9183 17.0262L16.2923 17.4235C16.9739 17.6171 17.6164 16.9646 17.4257 16.2732L17.0267 14.8514C16.8752 14.3121 17.1964 13.7535 17.7388 13.6131L19.145 13.249C19.8323 13.0822 20.0761 12.188 19.5525 11.6851L18.5099 10.65ZM6.98536 4.64112C5.0876 5.73679 3.91854 7.76166 3.91854 9.953C3.91854 12.1443 5.0876 14.1692 6.98536 15.2649C8.88311 16.3605 11.2212 16.3605 13.119 15.2649C15.0167 14.1692 16.1858 12.1443 16.1858 9.953C16.1858 7.76166 15.0167 5.73679 13.119 4.64112C11.2212 3.54545 8.88311 3.54545 6.98536 4.64112ZM13.519 3.9483C11.3737 2.70972 8.73063 2.70972 6.58536 3.9483C4.44008 5.18687 3.11854 7.47585 3.11854 9.953C3.11854 12.4301 4.44008 14.7191 6.58536 15.9577C8.73063 17.1963 11.3737 17.1963 13.519 15.9577C15.6643 14.7191 16.9858 12.4301 16.9858 9.953C16.9858 7.47585 15.6643 5.18687 13.519 3.9483ZM6.74168 13.2324C6.3354 13.2324 6.00603 12.9031 6.00603 12.4968V9.49012C6.00603 9.08384 6.3354 8.75447 6.74168 8.75447C7.14797 8.75447 7.47733 9.08384 7.47733 9.49012V12.4968C7.47733 12.9031 7.14797 13.2324 6.74168 13.2324ZM13.3625 8.38131C13.7671 8.38131 14.0982 8.71716 14.0982 9.12764V9.87396C14.0982 9.97099 14.0798 10.0605 14.0467 10.1464L12.9358 12.7772C12.8255 13.0458 12.5643 13.2324 12.2591 13.2324H8.94863C8.54402 13.2324 8.21298 12.8966 8.21298 12.4861V8.75447C8.21298 8.54923 8.2939 8.36265 8.43 8.22831L10.8503 5.76917L11.2402 6.16099C11.3395 6.26175 11.402 6.40355 11.402 6.55654L11.391 6.67596L11.0416 8.38131H13.3625Z" fill="white"/>
</svg>
