<svg width="33" height="33" viewBox="0 0 33 33" fill="none" xmlns="http://www.w3.org/2000/svg">
<path d="M16.783 0.0449219H16.579C7.69881 0.0449219 0.5 7.25053 0.5 16.1391V16.3433C0.5 25.2319 7.69881 32.4375 16.579 32.4375H16.783C25.6632 32.4375 32.862 25.2319 32.862 16.3433V16.1391C32.862 7.25053 25.6632 0.0449219 16.783 0.0449219Z" fill="#2560F9"/>
<path d="M27.02 11.2377C26.898 10.7781 26.6576 10.3584 26.3227 10.0211C25.9879 9.68385 25.5703 9.44079 25.112 9.31587C23.429 8.86143 16.679 8.86133 16.679 8.86133C16.679 8.86133 9.92995 8.86143 8.24695 9.31587C7.78858 9.44079 7.37106 9.68385 7.0362 10.0211C6.70133 10.3584 6.46089 10.7781 6.33896 11.2377C5.7376 14.7011 5.7376 18.2424 6.33896 21.7058C6.46073 22.1656 6.70111 22.5853 7.03598 22.9228C7.37086 23.2603 7.78846 23.5036 8.24695 23.6286C9.92995 24.083 16.679 24.0831 16.679 24.0831C16.679 24.0831 23.429 24.083 25.112 23.6286C25.5705 23.5036 25.9881 23.2603 26.3229 22.9228C26.6578 22.5853 26.8982 22.1656 27.02 21.7058C27.6213 18.2424 27.6213 14.7011 27.02 11.2377Z" fill="white"/>
<path d="M14.4739 19.6869V13.2622L20.1149 16.4746L14.4739 19.6869Z" fill="#2560F9"/>
</svg>
