<svg width="23" height="16" viewBox="0 0 23 16" fill="none" xmlns="http://www.w3.org/2000/svg">
<path d="M21.7028 2.46751C21.5809 2.00792 21.3404 1.5883 21.0056 1.251C20.6707 0.913704 20.2532 0.670651 19.7948 0.545729C18.1118 0.0912882 11.3618 0.0911865 11.3618 0.0911865C11.3618 0.0911865 4.61281 0.0912882 2.92981 0.545729C2.47144 0.670651 2.05392 0.913704 1.71906 1.251C1.3842 1.5883 1.14375 2.00792 1.02182 2.46751C0.420459 5.93093 0.420459 9.47224 1.02182 12.9357C1.1436 13.3954 1.38397 13.8152 1.71885 14.1527C2.05372 14.4901 2.47132 14.7334 2.92981 14.8584C4.61281 15.3129 11.3618 15.313 11.3618 15.313C11.3618 15.313 18.1118 15.3129 19.7948 14.8584C20.2533 14.7334 20.6709 14.4901 21.0058 14.1527C21.3407 13.8152 21.581 13.3954 21.7028 12.9357C22.3041 9.47224 22.3041 5.93094 21.7028 2.46751Z" fill="white"/>
<path d="M9.15674 10.9169V4.49219L14.7977 7.70456L9.15674 10.9169Z" fill="#212122" fill-opacity="0.2"/>
</svg>
