<svg width="32" height="36" viewBox="0 0 32 36" fill="none" xmlns="http://www.w3.org/2000/svg">
<path d="M7.23125 9.31569C8.91346 7.70041 11.0665 6.62545 13.399 6.23624C15.7315 5.84704 18.1309 6.16238 20.2726 7.13961L21.794 4.18743C18.8356 2.82056 15.4968 2.43315 12.2897 3.08462C9.08254 3.7361 6.18429 5.39047 4.03953 7.79395C3.84749 8.00867 3.69616 8.25467 3.59253 8.52058C3.88209 8.46743 4.17614 8.44069 4.47084 8.44069C5.46374 8.43845 6.43123 8.74513 7.23125 9.31569Z" fill="url(#paint0_linear_7_147)"/>
<path d="M10.6856 25.7394L11.0346 25.0622L11.2895 24.5638L11.3836 24.385L11.7325 23.7117L12.0815 23.0345L12.1482 22.8975L12.4305 22.3573L12.7795 21.6801L12.8853 21.4785L12.803 21.3225L7.72525 11.4579L7.70172 11.416C7.40484 10.835 6.94642 10.3462 6.37826 10.0047C5.8101 9.66316 5.15483 9.4826 4.48647 9.4834C4.13514 9.48448 3.78559 9.53184 3.4474 9.62416C3.23305 9.68445 3.0234 9.75946 2.82003 9.84862C2.18112 10.1376 1.65962 10.6248 1.33788 11.2334C1.05956 11.7332 0.907021 12.2898 0.892711 12.8578C0.8784 13.4257 1.00272 13.9889 1.25554 14.5013L1.31043 14.604L7.44293 26.5078L7.56056 26.7323L7.67427 26.9568L7.7919 27.185L7.90954 27.4095L8.02325 27.6339L8.14088 27.8584L8.25459 28.0867L8.37222 28.3111L8.48985 28.5356L8.60356 28.76L8.72119 28.9845L8.8349 29.2127L8.86627 29.2698C8.8898 29.2204 8.9094 29.1747 8.93293 29.129V29.1062L8.97606 29.0225L9.2819 28.429L9.63087 27.7557L9.97984 27.0785L10.3249 26.4013L10.6856 25.7394Z" fill="url(#paint1_linear_7_147)"/>
<path d="M31.6435 2.52492C31.5887 2.37116 31.5232 2.22118 31.4475 2.076C31.3896 1.96364 31.3255 1.85442 31.2554 1.74883C31.1926 1.65752 31.1299 1.57002 31.0593 1.48633C30.9995 1.4106 30.9354 1.33821 30.8672 1.26948C30.8044 1.20481 30.7378 1.14394 30.6711 1.08307L30.479 0.91948L30.2829 0.77872L30.0908 0.660784C30.0241 0.622741 29.9614 0.584698 29.8948 0.554263C29.8314 0.520022 29.7659 0.489531 29.6987 0.462958L29.5066 0.386872C29.4399 0.364046 29.3772 0.337416 29.3105 0.318394L29.1184 0.268937L28.9223 0.223285L28.7302 0.196655L28.5342 0.173828H28.342H28.146C28.0832 0.173828 28.0166 0.173828 27.9538 0.173828H27.7578L27.5657 0.204262L27.3696 0.24611L27.1736 0.299371L26.9814 0.364046L26.7854 0.440133L26.5932 0.531436L26.3972 0.637959C26.3308 0.674966 26.2667 0.715611 26.2051 0.759698C26.1384 0.801546 26.0717 0.851003 26.009 0.896655L25.8169 1.06024C25.7502 1.11731 25.6836 1.18198 25.6208 1.24665C25.5526 1.31538 25.4885 1.38778 25.4287 1.4635C25.3581 1.5472 25.2954 1.6347 25.2326 1.726C25.1625 1.83159 25.0984 1.94081 25.0405 2.05318V2.0722L25.017 2.11405L24.8562 2.426L24.6641 2.80644L24.468 3.18687L24.272 3.56731L24.0799 3.94774L23.8838 4.32818L23.6917 4.70861L23.4956 5.08905V5.11187L23.3153 5.46568L23.1192 5.84611L22.9271 6.22655L22.731 6.60698L22.5389 6.98742L22.3428 7.36785L22.1507 7.74829L21.9625 8.12872L21.7704 8.50916L21.5743 8.88959L21.3783 9.27003L21.1861 9.65046L20.9901 10.0309L20.7979 10.4113L20.6019 10.7918L20.4098 11.1722L20.2137 11.5526L20.0216 11.9331L19.8255 12.3135L19.6334 12.6939L19.4373 13.0744L19.2452 13.4548L19.0492 13.8352L18.857 14.2157L18.661 14.5961L18.4649 14.9765L18.2728 15.357L18.0767 15.7374L17.8846 16.1179L17.6886 16.4983L17.4964 16.8787L17.3004 17.2592L17.1082 17.6396L16.9122 18.02L16.7201 18.4005L16.524 18.7809L16.3319 19.1613L16.1358 19.5418L15.9437 19.9222L15.7476 20.3026L15.5516 20.6831L15.3595 21.0635L15.1634 21.4439L14.9713 21.8244L14.7752 22.2048L14.5831 22.5852L14.438 22.8668L14.3949 22.9505L14.2851 23.1635L14.2028 23.3271L14.0067 23.7075V23.7418L13.9244 23.8977L13.8303 24.0842L13.6734 24.3847L13.6342 24.4608L13.4421 24.8412L13.3244 25.0657L13.246 25.2179L13.0539 25.5983L12.9794 25.7429L12.9363 25.8227L12.8578 25.9787L12.6618 26.3592L12.6304 26.4238L12.4697 26.7358L12.2814 27.1162L12.0893 27.4967L11.9403 27.782L11.8933 27.8733L11.7011 28.2537L11.5913 28.463L11.5051 28.6304L11.3129 29.0108L11.2424 29.1439L11.1169 29.3874L10.9248 29.7679L10.8973 29.8211L10.7718 30.0646L10.7287 30.1445V30.1673C10.6779 30.2634 10.6334 30.3625 10.5954 30.4641C10.5774 30.5063 10.5617 30.5495 10.5483 30.5934C10.5048 30.7102 10.4694 30.8296 10.4425 30.951C10.411 31.084 10.3875 31.2187 10.3719 31.3543C10.3719 31.4722 10.3523 31.5939 10.3523 31.7119V31.7347C10.3523 31.8374 10.3523 31.9363 10.3523 32.0352C10.3523 32.1342 10.3758 32.2369 10.3915 32.3358C10.3915 32.4271 10.4268 32.5146 10.4503 32.6021C10.4738 32.6896 10.4974 32.7657 10.5287 32.8456C10.5562 32.9293 10.5915 33.0092 10.6268 33.0891C10.6621 33.1689 10.6621 33.1689 10.6817 33.2108L10.7052 33.2526L10.7287 33.2945C10.7679 33.3706 10.8111 33.4429 10.8542 33.5113L10.9012 33.5798C10.9287 33.6255 10.964 33.6711 10.9953 33.713C11.0267 33.7548 11.0581 33.8005 11.0934 33.8423L11.1483 33.9032C11.1875 33.9526 11.2306 33.9983 11.2737 34.0439V34.0668C11.3326 34.1238 11.3874 34.1809 11.4463 34.2304C11.509 34.2874 11.5717 34.3369 11.6345 34.3863C11.6972 34.432 11.7599 34.4814 11.8266 34.5233L12.0187 34.6412H12.0423L12.2109 34.7325L12.2658 34.7592L12.4069 34.8238L12.5049 34.8657L12.5991 34.8999L12.7598 34.9532H12.7951L12.9912 35.0064H13.0343L13.1833 35.0369L13.3244 35.0597H13.3793H13.5715H13.642H13.7675H13.9989H14.1675H14.3596L14.536 35.0331L14.7282 34.9912H14.7988L14.9242 34.957L15.1164 34.8923L15.3124 34.8162H15.3399L15.5045 34.7363C15.5712 34.7021 15.6379 34.6679 15.7006 34.6298L15.8966 34.5081L16.0888 34.3673C16.1554 34.3179 16.2221 34.2646 16.2848 34.2075C16.3476 34.1505 16.4142 34.0858 16.477 34.0211L16.5436 33.9526L16.673 33.8043C16.7397 33.7206 16.8063 33.6293 16.8651 33.5418C16.9365 33.4362 17.002 33.327 17.0612 33.2146V33.1728L17.1004 33.0929L17.222 32.8608L17.418 32.4804L17.4494 32.4119L17.6101 32.0999L17.7983 31.7195L17.9905 31.3391L18.1395 31.0537L18.1865 30.9624L18.2101 30.9168L18.3787 30.5858L18.5081 30.3423L18.5747 30.2092L18.7708 29.8287L18.9629 29.4483L19.1589 29.0679L19.3511 28.6874L19.5471 28.307L19.7393 27.9265L19.9353 27.5461L20.1274 27.1657L20.3235 26.7852L20.5156 26.4048L20.7117 26.0244L20.9038 25.6439L21.0999 25.2635L21.292 24.8831L21.488 24.5026L21.6841 24.1222L21.8762 23.7418L22.0723 23.3613L22.2644 22.9809L22.4605 22.6005L22.6526 22.22L22.8486 21.8396L23.0408 21.4592L23.2368 21.0787L23.429 20.6983L23.625 20.3179L23.8171 19.9374L24.0132 19.557L24.2053 19.1765L24.4014 18.7961L24.5974 18.4157L24.7896 18.0352L24.9856 17.6548L25.1777 17.2744L25.3738 16.8939L25.5659 16.5135L25.762 16.1331L25.9541 15.7526L26.1502 15.3722L26.3423 14.9918L26.5383 14.6113L26.7305 14.2309L26.9265 13.8505L27.1187 13.47L27.3147 13.0896L27.5108 12.7092L27.7029 12.3287L27.8989 11.9483L28.0911 11.5679L28.2871 11.1874L28.4793 10.807L28.6753 10.4265L28.8674 10.0461L29.0635 9.66568L29.2556 9.28524L29.4517 8.90481L29.6438 8.52437L29.8399 8.14394L30.0359 7.7635L30.228 7.38307L30.4241 7.00263L30.6162 6.6222L30.8123 6.24176L31.0044 5.86133L31.2005 5.4809L31.3926 5.10046V5.07763C31.4644 4.94003 31.526 4.79764 31.5769 4.65155C31.705 4.29047 31.7699 3.91114 31.769 3.52926C31.7775 3.19035 31.7353 2.85204 31.6435 2.52492Z" fill="url(#paint2_linear_7_147)"/>
<defs>
<linearGradient id="paint0_linear_7_147" x1="3.59253" y1="6.04776" x2="21.794" y2="6.04776" gradientUnits="userSpaceOnUse">
<stop offset="0.38" stop-color="#6920F1"/>
<stop offset="0.82" stop-color="#EF307F"/>
</linearGradient>
<linearGradient id="paint1_linear_7_147" x1="-6.27678" y1="-4.41007" x2="14.7593" y2="33.5796" gradientUnits="userSpaceOnUse">
<stop offset="0.56" stop-color="#681AF3"/>
<stop offset="0.86" stop-color="#9A4DF3"/>
</linearGradient>
<linearGradient id="paint2_linear_7_147" x1="11.8933" y1="35.8358" x2="30.4551" y2="-3.34994" gradientUnits="userSpaceOnUse">
<stop stop-color="#FF9B60"/>
<stop offset="1" stop-color="#DC2276"/>
</linearGradient>
</defs>
</svg>
